<svg xmlns="http://www.w3.org/2000/svg" width="22" height="17.6">
    <g fill="none" fill-rule="evenodd">
        <path fill="#535353" d="M8.6 3.5H22V6H8.6z"/>
        <path fill="#4a4a4a" d="M4.6.2C7 .2 9 2.2 9 4.8c0 2.6-2 4.6-4.4 4.6C2 9.4 0 7.4 0 4.6 0 2 2 0 4.7.2m0 2.7c-1-.5-1.8.4-1.8 1.4s.4 1.8 1.3 1.8c1 0 2-.7 2-1.7s-1-2-1.8-2"/>
        <path d="M17 14.4v-2.6"/>
        <path fill="#4a4a4a" d="M12.8 8.5c2.6 0 4.5 2 4.5 4.7 0 2.5-2 4.5-4.5 4.5-2.6 0-4.5-2-4.5-4.6 0-2.3 2-4.2 4.5-4.2m0 2.7c-1 0-1.8.8-1.8 2 0 .8.7 1.6 1.7 1.7 1 0 1.8-.7 2-1.7 0-1-1-2-2-2"/>
        <path fill="#4a4a4a" d="M0 11.8h11v2.5H0zm15 0h7v2.5h-7z"/>
    </g>
</svg>