<svg xmlns="http://www.w3.org/2000/svg" viewBox="0 0 35 35">
  <path fill="#535353" fill-rule="evenodd" d="M34.657 17.5c0 9.608-7.755 17.363-17.363 17.363S0 27.04 0 17.5 7.755.137 17.363.137 34.657 7.892 34.657 17.5zm-17.294-.137c2.47 0 4.53-4.05 4.53-6.588 0-2.47-2.06-4.53-4.53-4.53s-4.53 2.06-4.53 4.53 2.06 6.588 4.53 6.588zm9.127 6.588c-.068-.066.206-5.693-2.333-6.38-1.304-.343-2.402-.55-2.95-.686-.893 1.167-2.334 2.265-3.913 2.265-1.647 0-3.02-1.03-3.912-2.266-.617.138-1.715.412-2.95.687-2.47.617-2.197 6.725-2.197 6.725C10.5 26.627 13.657 28 17.157 28c3.706 0 7-1.578 9.333-4.05z"/>
</svg>
