<svg width="617" height="644" viewBox="0 0 617 644" xmlns="http://www.w3.org/2000/svg"><g fill="none" fill-rule="evenodd"><path d="M21.575 498.4h95l-4 28.8h-63.8l-4 28.8h59l-4.2 28.8h-59l-7.6 55.2h-31.2l19.8-141.6zm101.375 93c1.067-7.733 3.433-14.733 7.1-21 3.667-6.267 8.233-11.633 13.7-16.1 5.467-4.467 11.667-7.9 18.6-10.3 6.933-2.4 14.133-3.6 21.6-3.6 7.467 0 14.333 1.2 20.6 3.6 6.267 2.4 11.533 5.833 15.8 10.3 4.267 4.467 7.367 9.833 9.3 16.1 1.933 6.267 2.367 13.267 1.3 21-1.067 7.733-3.467 14.733-7.2 21-3.733 6.267-8.333 11.633-13.8 16.1-5.467 4.467-11.667 7.9-18.6 10.3-6.933 2.4-14.133 3.6-21.6 3.6-7.467 0-14.333-1.2-20.6-3.6-6.267-2.4-11.5-5.833-15.7-10.3-4.2-4.467-7.267-9.833-9.2-16.1-1.933-6.267-2.367-13.267-1.3-21zm30 0c-1.067 7.333.167 13.267 3.7 17.8 3.533 4.533 9.1 6.8 16.7 6.8s13.833-2.267 18.7-6.8c4.867-4.533 7.833-10.467 8.9-17.8 1.067-7.333-.2-13.267-3.8-17.8-3.6-4.533-9.2-6.8-16.8-6.8-7.6 0-13.8 2.267-18.6 6.8-4.8 4.533-7.733 10.467-8.8 17.8zm93.575 18.6l56.4-43.2h-49.2l3.4-24h84l-4 28.8-59.2 44.4h54l-3.2 24h-86.4l4.2-30zm104.375 0l56.4-43.2h-49.2l3.4-24h84l-4 28.8-59.2 44.4h54l-3.2 24h-86.4l4.2-30zm117.975-67.2h30l-13.6 97.2h-30l13.6-97.2zm1.8-30.6c.4-2.4 1.2-4.667 2.4-6.8s2.7-3.967 4.5-5.5a22.611 22.611 0 0 1 6.1-3.7 18.22 18.22 0 0 1 7-1.4c4.8 0 8.633 1.7 11.5 5.1 2.867 3.4 3.967 7.5 3.3 12.3-.267 2.4-1 4.667-2.2 6.8-1.2 2.133-2.7 3.967-4.5 5.5a22.611 22.611 0 0 1-6.1 3.7 18.22 18.22 0 0 1-7 1.4c-2.4 0-4.6-.467-6.6-1.4-2-.933-3.667-2.167-5-3.7-1.333-1.533-2.3-3.367-2.9-5.5-.6-2.133-.767-4.4-.5-6.8zm134.775 111c-5.6 6.133-12.3 10.867-20.1 14.2-7.8 3.333-15.633 5-23.5 5-7.467 0-14.333-1.2-20.6-3.6-6.267-2.4-11.5-5.833-15.7-10.3-4.2-4.467-7.267-9.833-9.2-16.1-1.933-6.267-2.367-13.267-1.3-21 1.067-7.733 3.433-14.733 7.1-21 3.667-6.267 8.233-11.633 13.7-16.1 5.467-4.467 11.667-7.9 18.6-10.3 6.933-2.4 14.133-3.6 21.6-3.6 6.933 0 13.067 1.2 18.4 3.6 5.333 2.4 9.667 5.833 13 10.3 3.333 4.467 5.633 9.833 6.9 16.1 1.267 6.267 1.367 13.267.3 21l-1.4 9.4h-69.6c.4 5.733 2.367 10.3 5.9 13.7 3.533 3.4 8.233 5.1 14.1 5.1 4.933 0 9.233-1.1 12.9-3.3 3.667-2.2 7.033-5.033 10.1-8.5l18.8 15.4zm-19.4-42.8c.8-5.067-.267-9.4-3.2-13-2.933-3.6-7.133-5.4-12.6-5.4-3.333 0-6.333.533-9 1.6-2.667 1.067-5 2.433-7 4.1a23.07 23.07 0 0 0-5 5.8c-1.333 2.2-2.267 4.5-2.8 6.9h39.6z" stroke="#2B2B2B" stroke-width="2" fill="#BC5410"/><g transform="translate(47)" fill-rule="nonzero"><circle fill="#DFDFDF" cx="256" cy="256" r="256"/><g transform="translate(54 18)" fill="#BC5410"><path d="M403.731 395.632c-46.864 59.883-119.798 98.367-201.728 98.367S47.139 455.515.275 395.632c7.199-28.003 20.929-53.708 39.612-75.191 31.932-36.728 78.346-61.158 131.427-63.843a607.6 607.6 0 0 1 61.377 0c53.081 2.685 99.495 27.115 131.427 63.843 18.684 21.483 32.414 47.188 39.613 75.191z"/><circle cx="359.78" cy="64.829" r="64.784"/></g><circle fill="#91420E" cx="409.161" cy="87.448" r="37.012"/><circle fill="#A5490C" cx="98.22" cy="82.829" r="64.784"/><circle fill="#91420E" cx="102.839" cy="87.448" r="37.012"/><path d="M286.692 274.598a598.116 598.116 0 0 0-33.813-.752c-.126-.011-.878 0-1.62 0-1.327.01-2.654.021-3.981.042-1.264.021-2.529.052-3.793.073-1.191.021-2.382.042-3.574.073l-3.96.125c-1.118.042-2.247.073-3.365.115-2.424.094-4.848.199-7.272.324-84.156 4.253-151.531 63.164-171.039 139.034a257.428 257.428 0 0 0 66.456 59.747c-.71-13.59-.42-27.214.867-40.761 3.371-35.248 34.523-60.942 69.499-58.533a6.194 6.194 0 0 1 4.686 2.674l14.286 20.883c2.911 4.256 9.25 4.067 11.903-.354l6.432-10.72c2.456-4.092 8.432-3.951 10.691.252l16.031 29.818c3.046 5.664 11.458 4.655 13.077-1.569l7.119-27.379c1.196-4.602 6.939-6.164 10.302-2.801l6.399 6.399c3.264 3.264 8.729 2.578 11.085-1.392l7.278-12.263a6.145 6.145 0 0 1 4.657-2.971 590.152 590.152 0 0 0 48.104-6.975c21.295-3.98 40.323-14.408 54.972-29.246-31.932-36.728-78.346-61.158-131.427-63.843z" fill="#A5490C"/><path d="M284.954 48.85a572.999 572.999 0 0 0-57.908 0C121.787 54.174 44.33 150.122 63.048 253.839c1.01 5.59 2.18 11.15 3.508 16.673 9.611 40.004 41.861 70.799 82.3 78.368 71.43 13.369 142.859 13.369 214.29 0 40.44-7.569 72.689-38.364 82.3-78.368a298.09 298.09 0 0 0 3.508-16.673c18.716-103.717-58.741-199.665-164-204.989z" fill="#BC5410"/><path d="M256 358.914c-35.715 0-71.429-3.344-107.144-10.031-40.438-7.565-72.694-38.358-82.296-78.367a296.283 296.283 0 0 1-3.511-16.677C44.335 150.123 121.783 54.18 227.046 48.851c8.861-.439 17.721-.69 26.593-.721a250.6 250.6 0 0 0-16.572.721C168.24 54.18 117.593 150.123 129.829 253.839a433.506 433.506 0 0 0 2.299 16.677c6.28 40.009 27.366 70.802 53.812 78.367 23.353 6.687 46.707 10.031 70.06 10.031z" fill="#A5490C"/><path d="M303.483 359.117c-31.655 4.992-63.31 4.992-94.966 0-19.669-3.102-35.52-19.763-38.561-41.374a86.264 86.264 0 0 1 0-24.167c3.041-21.61 18.892-38.271 38.561-41.374 31.65-4.991 63.301-4.993 94.951-.002 20.089 3.167 35.95 20.499 38.742 42.62a86.291 86.291 0 0 1-.166 22.923c-3.04 21.61-18.892 38.271-38.561 41.374z" fill="#E6E6E6"/><path d="M229.449 359.116c8.296 2.33 16.593 3.584 24.889 3.73a305.094 305.094 0 0 1-45.819-3.73c-19.675-3.103-35.527-19.769-38.567-41.378a86.725 86.725 0 0 1 0-24.168c3.041-21.608 18.892-38.275 38.567-41.367a303.912 303.912 0 0 1 45.829-3.741c-8.296.146-16.603 1.4-24.9 3.741-11.003 3.093-19.863 19.759-21.567 41.367a155.496 155.496 0 0 0 0 24.168c1.705 21.608 10.565 38.274 21.568 41.378z" fill="#CCC"/><path d="M291.246 270.638c0 12.774-15.78 30.473-35.245 30.473-19.465 0-35.245-17.7-35.245-30.473 0-12.774 15.78-15.786 35.245-15.786 19.465 0 35.245 3.011 35.245 15.786z" fill="#0F0F0E"/><circle fill="#807272" cx="273.763" cy="269.343" r="9.404"/><path d="M339.071 256.281c-13.828 0-25.078-11.249-25.078-25.078 0-11.319 7.628-21.275 18.55-24.213a25.171 25.171 0 0 1 6.527-.864c13.828 0 25.078 11.249 25.078 25.078 0 2.194-.29 4.389-.864 6.523-2.936 10.926-12.893 18.554-24.213 18.554zm-166.142 0c-13.828 0-25.078-11.249-25.078-25.078 0-11.319 7.628-21.275 18.55-24.213a25.171 25.171 0 0 1 6.527-.864c13.828 0 25.078 11.249 25.078 25.078 0 2.194-.29 4.389-.864 6.523-2.938 10.926-12.895 18.554-24.213 18.554z" fill="#91420E"/><g transform="translate(159 212)" fill="#0F0F0E"><path d="M193.655 13.979c0 1.223-.167 2.414-.47 3.542-1.557 5.789-6.834 10.041-13.113 10.041-7.502 0-13.584-6.081-13.584-13.584 0-6.28 4.253-11.557 10.041-13.113 1.128-.303 2.32-.47 3.542-.47 7.503 0 13.584 6.082 13.584 13.584z"/><circle cx="13.931" cy="13.98" r="13.584"/></g><path d="M352.655 225.979c0 1.223-.167 2.414-.47 3.542a12.536 12.536 0 0 1-5.277 1.16c-6.928 0-12.539-5.611-12.539-12.539 0-1.881.418-3.678 1.16-5.277 1.128-.303 2.32-.47 3.542-.47 7.503 0 13.584 6.082 13.584 13.584zm-166.143 0c0 1.223-.167 2.414-.47 3.542a12.536 12.536 0 0 1-5.277 1.16c-6.928 0-12.539-5.611-12.539-12.539 0-1.881.418-3.678 1.16-5.277 1.128-.303 2.32-.47 3.542-.47 7.503 0 13.584 6.082 13.584 13.584z" fill="#E6E6E6"/><path d="M99.541 379.98c2.834-4.355 9.692-2.907 10.326 2.251 1.17 9.539-8.215 22.913-19.569 27.238-11.782 4.488 1.859-18.141 9.243-29.489zm3.397 33.378c1.875-4.846 8.885-4.843 10.568.072 3.113 9.093-3.312 24.115-13.529 30.689-10.604 6.823-1.924-18.134 2.961-30.761z" fill="#BC5410"/></g></g></svg>