<svg viewBox="0 0 132 34" xmlns="http://www.w3.org/2000/svg"><g fill="none" fill-rule="evenodd"><path d="M126.865 11.068H34.193c-1.03-4.504-5.009-7.977-9.778-8.2a10.474 10.474 0 0 0-7.14-2.776c-2.67 0-5.197.985-7.138 2.777C4.583 3.126.096 7.794.096 13.367c0 2.433.85 4.796 2.398 6.676V33.89h124.37a4.954 4.954 0 0 0 4.94-4.94V16.007a4.954 4.954 0 0 0-4.94-4.94" fill="#26BF22"/><path d="M6.906 17.464c.366.33.576.798.576 1.29V29.92a46.863 46.863 0 0 1 4.976-.779v-7.245a1.247 1.247 0 1 1 2.495 0l.002 7.058a47.692 47.692 0 0 1 4.642 0l.002-7.058a1.247 1.247 0 0 1 2.496 0v7.245a46.86 46.86 0 0 1 4.975.779V18.755c0-.493.21-.96.576-1.291a5.53 5.53 0 0 0-3.69-9.63 5.543 5.543 0 0 0-1.736.267 5.54 5.54 0 0 0-4.944-3.033 5.541 5.541 0 0 0-4.944 3.033 5.54 5.54 0 0 0-1.736-.267 5.53 5.53 0 0 0-3.69 9.63m76.447 6.472c0 1.55-1.094 2.64-2.64 2.676-1.544-.036-2.639-1.126-2.639-2.676v-7.877h-2.842v7.87c0 3.135 2.221 5.24 5.482 5.241 3.26 0 5.481-2.106 5.481-5.24v-7.87h-2.842v7.876zm37.816-2.36v2.56h2.864v1.612c-.84.57-1.913.854-2.992.864a.97.97 0 0 0-.056.001c-2.286 0-3.995-1.853-3.995-4.139 0-2.286 1.71-4.139 3.995-4.139 1.124 0 2.135.448 2.88 1.174l1.674-1.952a6.665 6.665 0 0 0-4.554-1.79c-3.704 0-6.833 3.003-6.833 6.707 0 3.704 3.129 6.707 6.833 6.707 2.27-.019 4.406-.83 5.825-2.356v-5.25h-5.641zm-80.22-.257l-3.402-5.26h-3.082v12.836h2.842v-8.071l2.82 4.388h1.643l2.82-4.388v8.07h2.846V16.06H44.35l-3.401 5.26zm9.315 7.576h8.395v-2.533h-5.55v-2.664h4.482v-2.534H53.11v-2.571h5.55v-2.534h-8.395v12.836zm55.509-2.287a4.13 4.13 0 1 1 0-8.261 4.13 4.13 0 0 1 0 8.26zm0-10.824a6.693 6.693 0 1 0 0 13.386 6.693 6.693 0 0 0 0-13.386zm-13.917.275h-2.848v12.836h9.3v-2.589h-6.452V16.06zm-22.281 7.584l-5.736-7.584h-2.66v12.836h2.845v-7.842l5.94 7.842h2.454V16.059h-2.843v7.584z" fill="#FFF"/></g></svg>