<svg xmlns="http://www.w3.org/2000/svg" viewBox="0 0 1160.9 274.5">
  <path fill="#fff" d="M890.1 144.2l26.6-58.1c2.3-4.9 2.3-4.9 5.3-4.9 3.4 0 3.4 0 4.2 5.3l8 57.7h-44.1zm71.8-80.9c-4.2-22.8-4.2-22.8-36.5-22.8-30.4 0-30 0-39.1 18.6l-68.8 142.4c-9.9 20.5-8.4 22 17.1 22 19.8 0 19.4 0 27.7-18.2l11-24.3h66.1l3.4 24.3c2.7 18.2 3.4 18.2 23.2 18.2 22.2 0 24.4-1.6 20.1-23.6L961.9 63.3zM804 79.2c16.1 0 16.2-.2 19.5-19.4 3.3-19.3 3.3-19.4-11.5-19.4h-82c-28.9 0-28.3 0-33.3 29.2l-21 122.3c-5.3 31.5-5 31.5 24.6 31.5h80.1c16.7 0 16.3 0 19.8-19 3.4-19.8 3.4-19.8-11.8-19.8h-69.1l5.7-35.3h57.4c15.6 0 15.6 0 18.2-18.2 3-18.6 3-18.6-18.2-18.6h-51.3l5.7-33.4H804zM602.3 40.5H487.4c-16.3 0-16.3 0-19.8 19.4s-3 19.4 11.4 19.4h37.4L495.6 200c-3.8 23.6-3.5 23.6 17.8 23.6 19.4 0 20.6 0 23.2-16.7l22-127.6h35.7c16.1 0 16.1 0 19.5-19.4 3.3-19.4 3.3-19.4-11.5-19.4zm-314.3 0c-20 0-20.4.1-23.2 16.8l-15.1 88c-4.2 25.5-11.1 40.4-35.8 40.4-24.7 0-33.1-14.8-29.3-37.6L199 64c3.8-23.6 3.1-23.4-17.8-23.4-20.4 0-20.9-.2-23.6 16.6l-15.2 88.3c-8.6 50 22.1 80.9 66.2 80.9 49.4 0 74.2-22 82.6-74.8l15-87.4c4-23.7 3.1-23.7-18.2-23.7zm-169.6 0H68.1c-16.5 0-16.5 0-19.8 19.1-3.4 19.1-3 19.7 11.6 19.7h29.9L73.2 176c-3.7 21.7-13.5 36.3-42.6 45.3-7.5 2.2-9.7 5.2-9.7 8.6 0 3.7 1.5 7.5 4.5 15.3C29.9 256.8 32.9 259 37 259s11.6-2.2 14.2-3c41.5-13.5 58-45.3 64.7-83.4l18.7-108.8c4-22.9 4-23.3-16.2-23.3zm262.1 144.4c16.2-1 24.7-7.9 24.7-15.9 0-9.5-11.8-12.9-27.3-17.5-30.8-9.5-58.1-20.3-58.1-52.9 0-38.4 31.5-59.2 71.4-59.2 16.7 0 35.9 1 48.3 2.1 11.2 1 13.2 5 10.3 21.7-2.9 16.7-6.8 18.4-16 17.6-11.5-1-26.4-2-43.7-1.8-20.5.3-26.3 7.2-26.3 14.4 0 8.7 8 13.7 27 18.6 35.3 10.3 58.5 24.2 58.5 54.6 0 35.7-26.6 56.6-69.1 58.3-23.2.9-43.1-.8-60.7-3.4-13.5-2-14-2.2-10.7-21.7 3.1-17.7 3.5-19 15.9-17.5 24 2.9 39.5 3.6 55.8 2.6zM1124 40.5h-114.9c-16.3 0-16.3 0-19.8 19.4s-3 19.4 11.4 19.4h37.4L1017.3 200c-3.8 23.6-3.5 23.6 17.8 23.6 19.4 0 20.6 0 23.2-16.7l22-127.6h35.7c16.1 0 16.1 0 19.5-19.4 3.3-19.4 3.3-19.4-11.5-19.4z"/>
</svg>
