<svg xmlns="http://www.w3.org/2000/svg" viewBox="0 0 2611.9 513.4">
  <path fill="#FA0029" d="M2033.7 245l62.2-136c5.2-11.5 5.2-11.5 12.3-11.5 8 0 8 0 9.8 12.4l18.8 135h-103zm168-189.2c-10-53.3-10-53.3-85.4-53.3-71 0-70.2 0-91.5 43.5L1864 379.2c-23 48-19.5 51.5 40 51.5 46.2 0 45.3 0 65-42.7l25.7-57h154.6l8 57c6.2 42.7 8 42.7 54.2 42.7 52 0 57-3.7 47-55l-57-320zM1832.2 93c37.8 0 38-.3 45.6-45.2 7.8-45.2 7.7-45.3-27-45.3H1659c-67.5 0-66.2 0-77.8 68.4L1532 357c-12.5 73.8-11.8 73.8 57.6 73.8H1777c39.2 0 38.3 0 46.3-44.4 8-46.2 8-46.2-27.5-46.2H1634l13.3-82.6h134.2c36.4 0 36.4 0 42.7-42.7 7-43.6 7-43.6-42.7-43.6h-120l13.3-78.2h157.4zM1360.3 2.5h-269c-38 0-38 0-46 45.3S1038 93 1071.8 93h87.5l-48.8 282.7c-9 55-8 55 41.6 55 45.4 0 48 0 54.3-39L1258 93h83.5c37.7 0 37.7 0 45.6-45.2 8-45.2 8-45.3-26.7-45.3M625 2.5c-46.7 0-47.6.3-54.3 39.2l-35.4 205.8c-9.8 59.5-26 94.5-83.7 94.5-57.8 0-77.5-34.7-68.6-88l33.6-196.7c9-55 7.3-54.8-41.6-54.8-47.7 0-49-.4-55.2 38.7l-35.4 206.5C264 364.7 336 437 439 437c115.6 0 173.8-51.5 193.3-175l35.2-204.5c9.5-55 7.3-55-42.4-55m-396.8 0H110.6C72 2.5 72 2.5 64.2 47c-8 44.7-7 46 27.2 46h69.8l-38.8 226.2c-8.7 50.8-31.4 85-99.7 106C5.3 430 0 437 0 445c0 8.7 3.5 17.5 10.5 36 10.5 27 17.5 32.2 27 32.2 9.7 0 27.2-5.3 33.3-7 97-31.5 135.6-106 151.3-195l44-254.6c9.6-53.4 9.6-54.3-37.7-54.3m613 338.1c38-2.2 57.8-18.5 57.8-37 0-22.3-27.5-30.3-64-41-72-22.2-136-47.4-136-123.8C699.2 48.8 773.2 0 866.4 0c39 0 84 2.3 113 5 26.2 2.4 31 11.7 24.3 50.8-6.7 39-15.8 43-37.4 41.2-27-2.3-61.7-4.8-102.3-4.3-48 .6-61.6 17-61.6 33.7 0 20.4 18.7 32 63 43.5 82.7 24 137 56.4 137 127.5 0 83.5-62.3 132.4-161.8 136.3-54.2 2-100.8-2-142-8-31.8-4.5-33-5-25-50.6 7.2-41.5 8.2-44.4 37.3-41 56 7 92.5 8.4 130.4 6.2M2580.8 2.5h-269c-38 0-38 0-46 45.3s-7.2 45.3 26.6 45.3h87.6l-48.8 282.7c-9 55-8 55 41.6 55 45.4 0 48 0 54.3-39L2478.6 93h83.5c37.7 0 37.7 0 45.6-45.2 8-45.2 7.8-45.3-26.8-45.3"/>
</svg>
