<?xml version="1.0" encoding="UTF-8"?><!DOCTYPE svg PUBLIC "-//W3C//DTD SVG 1.1//EN" "http://www.w3.org/Graphics/SVG/1.1/DTD/svg11.dtd"><svg xmlns="http://www.w3.org/2000/svg"><symbol id="icons-icon-profile" viewBox="0 0 35 35"><path fill="#535353" fill-rule="evenodd" d="M34.657 17.5c0 9.608-7.755 17.363-17.363 17.363S0 27.04 0 17.5 7.755.137 17.363.137 34.657 7.892 34.657 17.5zm-17.294-.137c2.47 0 4.53-4.05 4.53-6.588 0-2.47-2.06-4.53-4.53-4.53s-4.53 2.06-4.53 4.53 2.06 6.588 4.53 6.588zm9.127 6.588c-.068-.066.206-5.693-2.333-6.38-1.304-.343-2.402-.55-2.95-.686-.893 1.167-2.334 2.265-3.913 2.265-1.647 0-3.02-1.03-3.912-2.266-.617.138-1.715.412-2.95.687-2.47.617-2.197 6.725-2.197 6.725C10.5 26.627 13.657 28 17.157 28c3.706 0 7-1.578 9.333-4.05z"/></symbol><symbol id="logos-fozzie" viewBox="0 0 617 644"><g fill="none" fill-rule="evenodd"><path d="M21.575 498.4h95l-4 28.8h-63.8l-4 28.8h59l-4.2 28.8h-59l-7.6 55.2h-31.2l19.8-141.6zm101.375 93c1.067-7.733 3.433-14.733 7.1-21 3.667-6.267 8.233-11.633 13.7-16.1 5.467-4.467 11.667-7.9 18.6-10.3 6.933-2.4 14.133-3.6 21.6-3.6 7.467 0 14.333 1.2 20.6 3.6 6.267 2.4 11.533 5.833 15.8 10.3 4.267 4.467 7.367 9.833 9.3 16.1 1.933 6.267 2.367 13.267 1.3 21-1.067 7.733-3.467 14.733-7.2 21-3.733 6.267-8.333 11.633-13.8 16.1-5.467 4.467-11.667 7.9-18.6 10.3-6.933 2.4-14.133 3.6-21.6 3.6-7.467 0-14.333-1.2-20.6-3.6-6.267-2.4-11.5-5.833-15.7-10.3-4.2-4.467-7.267-9.833-9.2-16.1-1.933-6.267-2.367-13.267-1.3-21zm30 0c-1.067 7.333.167 13.267 3.7 17.8 3.533 4.533 9.1 6.8 16.7 6.8s13.833-2.267 18.7-6.8c4.867-4.533 7.833-10.467 8.9-17.8 1.067-7.333-.2-13.267-3.8-17.8-3.6-4.533-9.2-6.8-16.8-6.8-7.6 0-13.8 2.267-18.6 6.8-4.8 4.533-7.733 10.467-8.8 17.8zm93.575 18.6l56.4-43.2h-49.2l3.4-24h84l-4 28.8-59.2 44.4h54l-3.2 24h-86.4l4.2-30zm104.375 0l56.4-43.2h-49.2l3.4-24h84l-4 28.8-59.2 44.4h54l-3.2 24h-86.4l4.2-30zm117.975-67.2h30l-13.6 97.2h-30l13.6-97.2zm1.8-30.6c.4-2.4 1.2-4.667 2.4-6.8s2.7-3.967 4.5-5.5a22.611 22.611 0 0 1 6.1-3.7 18.22 18.22 0 0 1 7-1.4c4.8 0 8.633 1.7 11.5 5.1 2.867 3.4 3.967 7.5 3.3 12.3-.267 2.4-1 4.667-2.2 6.8-1.2 2.133-2.7 3.967-4.5 5.5a22.611 22.611 0 0 1-6.1 3.7 18.22 18.22 0 0 1-7 1.4c-2.4 0-4.6-.467-6.6-1.4-2-.933-3.667-2.167-5-3.7-1.333-1.533-2.3-3.367-2.9-5.5-.6-2.133-.767-4.4-.5-6.8zm134.775 111c-5.6 6.133-12.3 10.867-20.1 14.2-7.8 3.333-15.633 5-23.5 5-7.467 0-14.333-1.2-20.6-3.6-6.267-2.4-11.5-5.833-15.7-10.3-4.2-4.467-7.267-9.833-9.2-16.1-1.933-6.267-2.367-13.267-1.3-21 1.067-7.733 3.433-14.733 7.1-21 3.667-6.267 8.233-11.633 13.7-16.1 5.467-4.467 11.667-7.9 18.6-10.3 6.933-2.4 14.133-3.6 21.6-3.6 6.933 0 13.067 1.2 18.4 3.6 5.333 2.4 9.667 5.833 13 10.3 3.333 4.467 5.633 9.833 6.9 16.1 1.267 6.267 1.367 13.267.3 21l-1.4 9.4h-69.6c.4 5.733 2.367 10.3 5.9 13.7 3.533 3.4 8.233 5.1 14.1 5.1 4.933 0 9.233-1.1 12.9-3.3 3.667-2.2 7.033-5.033 10.1-8.5l18.8 15.4zm-19.4-42.8c.8-5.067-.267-9.4-3.2-13-2.933-3.6-7.133-5.4-12.6-5.4-3.333 0-6.333.533-9 1.6-2.667 1.067-5 2.433-7 4.1a23.07 23.07 0 0 0-5 5.8c-1.333 2.2-2.267 4.5-2.8 6.9h39.6z" stroke="#2B2B2B" stroke-width="2" fill="#BC5410"/><g transform="translate(47)" fill-rule="nonzero"><circle fill="#DFDFDF" cx="256" cy="256" r="256"/><g transform="translate(54 18)" fill="#BC5410"><path d="M403.731 395.632c-46.864 59.883-119.798 98.367-201.728 98.367S47.139 455.515.275 395.632c7.199-28.003 20.929-53.708 39.612-75.191 31.932-36.728 78.346-61.158 131.427-63.843a607.6 607.6 0 0 1 61.377 0c53.081 2.685 99.495 27.115 131.427 63.843 18.684 21.483 32.414 47.188 39.613 75.191z"/><circle cx="359.78" cy="64.829" r="64.784"/></g><circle fill="#91420E" cx="409.161" cy="87.448" r="37.012"/><circle fill="#A5490C" cx="98.22" cy="82.829" r="64.784"/><circle fill="#91420E" cx="102.839" cy="87.448" r="37.012"/><path d="M286.692 274.598a598.116 598.116 0 0 0-33.813-.752c-.126-.011-.878 0-1.62 0-1.327.01-2.654.021-3.981.042-1.264.021-2.529.052-3.793.073-1.191.021-2.382.042-3.574.073l-3.96.125c-1.118.042-2.247.073-3.365.115-2.424.094-4.848.199-7.272.324-84.156 4.253-151.531 63.164-171.039 139.034a257.428 257.428 0 0 0 66.456 59.747c-.71-13.59-.42-27.214.867-40.761 3.371-35.248 34.523-60.942 69.499-58.533a6.194 6.194 0 0 1 4.686 2.674l14.286 20.883c2.911 4.256 9.25 4.067 11.903-.354l6.432-10.72c2.456-4.092 8.432-3.951 10.691.252l16.031 29.818c3.046 5.664 11.458 4.655 13.077-1.569l7.119-27.379c1.196-4.602 6.939-6.164 10.302-2.801l6.399 6.399c3.264 3.264 8.729 2.578 11.085-1.392l7.278-12.263a6.145 6.145 0 0 1 4.657-2.971 590.152 590.152 0 0 0 48.104-6.975c21.295-3.98 40.323-14.408 54.972-29.246-31.932-36.728-78.346-61.158-131.427-63.843z" fill="#A5490C"/><path d="M284.954 48.85a572.999 572.999 0 0 0-57.908 0C121.787 54.174 44.33 150.122 63.048 253.839c1.01 5.59 2.18 11.15 3.508 16.673 9.611 40.004 41.861 70.799 82.3 78.368 71.43 13.369 142.859 13.369 214.29 0 40.44-7.569 72.689-38.364 82.3-78.368a298.09 298.09 0 0 0 3.508-16.673c18.716-103.717-58.741-199.665-164-204.989z" fill="#BC5410"/><path d="M256 358.914c-35.715 0-71.429-3.344-107.144-10.031-40.438-7.565-72.694-38.358-82.296-78.367a296.283 296.283 0 0 1-3.511-16.677C44.335 150.123 121.783 54.18 227.046 48.851c8.861-.439 17.721-.69 26.593-.721a250.6 250.6 0 0 0-16.572.721C168.24 54.18 117.593 150.123 129.829 253.839a433.506 433.506 0 0 0 2.299 16.677c6.28 40.009 27.366 70.802 53.812 78.367 23.353 6.687 46.707 10.031 70.06 10.031z" fill="#A5490C"/><path d="M303.483 359.117c-31.655 4.992-63.31 4.992-94.966 0-19.669-3.102-35.52-19.763-38.561-41.374a86.264 86.264 0 0 1 0-24.167c3.041-21.61 18.892-38.271 38.561-41.374 31.65-4.991 63.301-4.993 94.951-.002 20.089 3.167 35.95 20.499 38.742 42.62a86.291 86.291 0 0 1-.166 22.923c-3.04 21.61-18.892 38.271-38.561 41.374z" fill="#E6E6E6"/><path d="M229.449 359.116c8.296 2.33 16.593 3.584 24.889 3.73a305.094 305.094 0 0 1-45.819-3.73c-19.675-3.103-35.527-19.769-38.567-41.378a86.725 86.725 0 0 1 0-24.168c3.041-21.608 18.892-38.275 38.567-41.367a303.912 303.912 0 0 1 45.829-3.741c-8.296.146-16.603 1.4-24.9 3.741-11.003 3.093-19.863 19.759-21.567 41.367a155.496 155.496 0 0 0 0 24.168c1.705 21.608 10.565 38.274 21.568 41.378z" fill="#CCC"/><path d="M291.246 270.638c0 12.774-15.78 30.473-35.245 30.473-19.465 0-35.245-17.7-35.245-30.473 0-12.774 15.78-15.786 35.245-15.786 19.465 0 35.245 3.011 35.245 15.786z" fill="#0F0F0E"/><circle fill="#807272" cx="273.763" cy="269.343" r="9.404"/><path d="M339.071 256.281c-13.828 0-25.078-11.249-25.078-25.078 0-11.319 7.628-21.275 18.55-24.213a25.171 25.171 0 0 1 6.527-.864c13.828 0 25.078 11.249 25.078 25.078 0 2.194-.29 4.389-.864 6.523-2.936 10.926-12.893 18.554-24.213 18.554zm-166.142 0c-13.828 0-25.078-11.249-25.078-25.078 0-11.319 7.628-21.275 18.55-24.213a25.171 25.171 0 0 1 6.527-.864c13.828 0 25.078 11.249 25.078 25.078 0 2.194-.29 4.389-.864 6.523-2.938 10.926-12.895 18.554-24.213 18.554z" fill="#91420E"/><g transform="translate(159 212)" fill="#0F0F0E"><path d="M193.655 13.979c0 1.223-.167 2.414-.47 3.542-1.557 5.789-6.834 10.041-13.113 10.041-7.502 0-13.584-6.081-13.584-13.584 0-6.28 4.253-11.557 10.041-13.113 1.128-.303 2.32-.47 3.542-.47 7.503 0 13.584 6.082 13.584 13.584z"/><circle cx="13.931" cy="13.98" r="13.584"/></g><path d="M352.655 225.979c0 1.223-.167 2.414-.47 3.542a12.536 12.536 0 0 1-5.277 1.16c-6.928 0-12.539-5.611-12.539-12.539 0-1.881.418-3.678 1.16-5.277 1.128-.303 2.32-.47 3.542-.47 7.503 0 13.584 6.082 13.584 13.584zm-166.143 0c0 1.223-.167 2.414-.47 3.542a12.536 12.536 0 0 1-5.277 1.16c-6.928 0-12.539-5.611-12.539-12.539 0-1.881.418-3.678 1.16-5.277 1.128-.303 2.32-.47 3.542-.47 7.503 0 13.584 6.082 13.584 13.584z" fill="#E6E6E6"/><path d="M99.541 379.98c2.834-4.355 9.692-2.907 10.326 2.251 1.17 9.539-8.215 22.913-19.569 27.238-11.782 4.488 1.859-18.141 9.243-29.489zm3.397 33.378c1.875-4.846 8.885-4.843 10.568.072 3.113 9.093-3.312 24.115-13.529 30.689-10.604 6.823-1.924-18.134 2.961-30.761z" fill="#BC5410"/></g></g></symbol><symbol id="logos-je-logo--light.v1" viewBox="0 0 1160.9 274.5"><path fill="#fff" d="M890.1 144.2l26.6-58.1c2.3-4.9 2.3-4.9 5.3-4.9 3.4 0 3.4 0 4.2 5.3l8 57.7h-44.1zm71.8-80.9c-4.2-22.8-4.2-22.8-36.5-22.8-30.4 0-30 0-39.1 18.6l-68.8 142.4c-9.9 20.5-8.4 22 17.1 22 19.8 0 19.4 0 27.7-18.2l11-24.3h66.1l3.4 24.3c2.7 18.2 3.4 18.2 23.2 18.2 22.2 0 24.4-1.6 20.1-23.6L961.9 63.3zM804 79.2c16.1 0 16.2-.2 19.5-19.4 3.3-19.3 3.3-19.4-11.5-19.4h-82c-28.9 0-28.3 0-33.3 29.2l-21 122.3c-5.3 31.5-5 31.5 24.6 31.5h80.1c16.7 0 16.3 0 19.8-19 3.4-19.8 3.4-19.8-11.8-19.8h-69.1l5.7-35.3h57.4c15.6 0 15.6 0 18.2-18.2 3-18.6 3-18.6-18.2-18.6h-51.3l5.7-33.4H804zM602.3 40.5H487.4c-16.3 0-16.3 0-19.8 19.4s-3 19.4 11.4 19.4h37.4L495.6 200c-3.8 23.6-3.5 23.6 17.8 23.6 19.4 0 20.6 0 23.2-16.7l22-127.6h35.7c16.1 0 16.1 0 19.5-19.4 3.3-19.4 3.3-19.4-11.5-19.4zm-314.3 0c-20 0-20.4.1-23.2 16.8l-15.1 88c-4.2 25.5-11.1 40.4-35.8 40.4-24.7 0-33.1-14.8-29.3-37.6L199 64c3.8-23.6 3.1-23.4-17.8-23.4-20.4 0-20.9-.2-23.6 16.6l-15.2 88.3c-8.6 50 22.1 80.9 66.2 80.9 49.4 0 74.2-22 82.6-74.8l15-87.4c4-23.7 3.1-23.7-18.2-23.7zm-169.6 0H68.1c-16.5 0-16.5 0-19.8 19.1-3.4 19.1-3 19.7 11.6 19.7h29.9L73.2 176c-3.7 21.7-13.5 36.3-42.6 45.3-7.5 2.2-9.7 5.2-9.7 8.6 0 3.7 1.5 7.5 4.5 15.3C29.9 256.8 32.9 259 37 259s11.6-2.2 14.2-3c41.5-13.5 58-45.3 64.7-83.4l18.7-108.8c4-22.9 4-23.3-16.2-23.3zm262.1 144.4c16.2-1 24.7-7.9 24.7-15.9 0-9.5-11.8-12.9-27.3-17.5-30.8-9.5-58.1-20.3-58.1-52.9 0-38.4 31.5-59.2 71.4-59.2 16.7 0 35.9 1 48.3 2.1 11.2 1 13.2 5 10.3 21.7-2.9 16.7-6.8 18.4-16 17.6-11.5-1-26.4-2-43.7-1.8-20.5.3-26.3 7.2-26.3 14.4 0 8.7 8 13.7 27 18.6 35.3 10.3 58.5 24.2 58.5 54.6 0 35.7-26.6 56.6-69.1 58.3-23.2.9-43.1-.8-60.7-3.4-13.5-2-14-2.2-10.7-21.7 3.1-17.7 3.5-19 15.9-17.5 24 2.9 39.5 3.6 55.8 2.6zM1124 40.5h-114.9c-16.3 0-16.3 0-19.8 19.4s-3 19.4 11.4 19.4h37.4L1017.3 200c-3.8 23.6-3.5 23.6 17.8 23.6 19.4 0 20.6 0 23.2-16.7l22-127.6h35.7c16.1 0 16.1 0 19.5-19.4 3.3-19.4 3.3-19.4-11.5-19.4z"/></symbol><symbol id="logos-je-logo.v1" viewBox="0 0 2611.9 513.4"><path fill="#FA0029" d="M2033.7 245l62.2-136c5.2-11.5 5.2-11.5 12.3-11.5 8 0 8 0 9.8 12.4l18.8 135h-103zm168-189.2c-10-53.3-10-53.3-85.4-53.3-71 0-70.2 0-91.5 43.5L1864 379.2c-23 48-19.5 51.5 40 51.5 46.2 0 45.3 0 65-42.7l25.7-57h154.6l8 57c6.2 42.7 8 42.7 54.2 42.7 52 0 57-3.7 47-55l-57-320zM1832.2 93c37.8 0 38-.3 45.6-45.2 7.8-45.2 7.7-45.3-27-45.3H1659c-67.5 0-66.2 0-77.8 68.4L1532 357c-12.5 73.8-11.8 73.8 57.6 73.8H1777c39.2 0 38.3 0 46.3-44.4 8-46.2 8-46.2-27.5-46.2H1634l13.3-82.6h134.2c36.4 0 36.4 0 42.7-42.7 7-43.6 7-43.6-42.7-43.6h-120l13.3-78.2h157.4zM1360.3 2.5h-269c-38 0-38 0-46 45.3S1038 93 1071.8 93h87.5l-48.8 282.7c-9 55-8 55 41.6 55 45.4 0 48 0 54.3-39L1258 93h83.5c37.7 0 37.7 0 45.6-45.2 8-45.2 8-45.3-26.7-45.3M625 2.5c-46.7 0-47.6.3-54.3 39.2l-35.4 205.8c-9.8 59.5-26 94.5-83.7 94.5-57.8 0-77.5-34.7-68.6-88l33.6-196.7c9-55 7.3-54.8-41.6-54.8-47.7 0-49-.4-55.2 38.7l-35.4 206.5C264 364.7 336 437 439 437c115.6 0 173.8-51.5 193.3-175l35.2-204.5c9.5-55 7.3-55-42.4-55m-396.8 0H110.6C72 2.5 72 2.5 64.2 47c-8 44.7-7 46 27.2 46h69.8l-38.8 226.2c-8.7 50.8-31.4 85-99.7 106C5.3 430 0 437 0 445c0 8.7 3.5 17.5 10.5 36 10.5 27 17.5 32.2 27 32.2 9.7 0 27.2-5.3 33.3-7 97-31.5 135.6-106 151.3-195l44-254.6c9.6-53.4 9.6-54.3-37.7-54.3m613 338.1c38-2.2 57.8-18.5 57.8-37 0-22.3-27.5-30.3-64-41-72-22.2-136-47.4-136-123.8C699.2 48.8 773.2 0 866.4 0c39 0 84 2.3 113 5 26.2 2.4 31 11.7 24.3 50.8-6.7 39-15.8 43-37.4 41.2-27-2.3-61.7-4.8-102.3-4.3-48 .6-61.6 17-61.6 33.7 0 20.4 18.7 32 63 43.5 82.7 24 137 56.4 137 127.5 0 83.5-62.3 132.4-161.8 136.3-54.2 2-100.8-2-142-8-31.8-4.5-33-5-25-50.6 7.2-41.5 8.2-44.4 37.3-41 56 7 92.5 8.4 130.4 6.2M2580.8 2.5h-269c-38 0-38 0-46 45.3s-7.2 45.3 26.6 45.3h87.6l-48.8 282.7c-9 55-8 55 41.6 55 45.4 0 48 0 54.3-39L2478.6 93h83.5c37.7 0 37.7 0 45.6-45.2 8-45.2 7.8-45.3-26.8-45.3"/></symbol><symbol id="icons-social-icon-facebook"><path fill-rule="evenodd" d="M30 0H2.2C1.2 0 .5.8.5 1.8v28.5c0 1 .8 1.7 1.7 1.7h15V19.6h-4v-5h4v-3.4c0-4 2.4-6.4 6-6.4 1.7 0 3.2 0 3.6.2v4.3h-2.5c-2 0-2.3 1-2.3 2.3v3h4.6l-.6 5h-4V32h8c1 0 1.7-.8 1.7-1.8V1.8C31.7.8 31 0 30 0z"/></symbol><symbol id="icons-social-icon-google-plus"><path fill-rule="evenodd" d="M30.5 32h-28c-1 0-2-1-2-2V2c0-1 1-2 2-2h28c1 0 2 1 2 2v28c0 1-1 2-2 2zM27 15h-2v-2h-1.8v2h-2v2h2v2h2v-2h2v-2zm-9.8 5.6c1.2-1.2 2-3 2-4.7v-1.3h-6.6V17h4l-1 2c-1.7 1.5-4.5 1.5-6 0-.8-1-1.3-2-1.3-3s.5-2.2 1.2-3c1.6-1.6 4.4-1.6 6 0l1.7-1.7c-1.2-1.2-3-2-4.6-2-1.8 0-3.5.6-4.7 2-1.3 1.2-2 3-2 4.6 0 1.7.6 3.4 2 4.6 1 1.2 2.8 2 4.6 2 1.7 0 3.3-.8 4.6-2z"/></symbol><symbol id="icons-social-icon-instagram"><path fill-rule="evenodd" d="M30.5 32h-28c-1 0-2-1-2-2V2c0-1 1-2 2-2h28c1 0 2 1 2 2v28c0 1-1 2-2 2zm-14-25.5h4.7l2.2.5c.5.2 1 .5 1.3 1 .4.3.7.6.8 1.2.2.4.4 1 .4 2.2v9.4l-.5 2.2c0 .5-.4.8-.8 1.2-.4.4-.8.7-1.3.8-.5.2-1 .4-2.2.4h-9.4c-1 0-1.8-.3-2.2-.4-.5 0-1-.4-1.3-.8-.4-.4-.7-.8-.8-1.3-.2-.6-.4-1.2-.4-2.3v-9.3L7.6 9c0-.4.4-.8.8-1.2.4-.4.8-.7 1.3-.8.5-.2 1-.4 2.2-.4h4.7zm0-2h-4.8c-1.2 0-2 .3-2.8.6-.8.4-1.5.8-2 1.4-.8.6-1 1.2-1.5 2C5.2 9 5 10 5 11.2c-.2 1.2-.2 1.6-.2 4.8 0 3 0 3.6.2 4.8 0 1.2.2 2 .5 2.8.3.7.7 1.4 1.3 2 .7.7 1.4 1 2 1.4.8.3 1.7.4 3 .5 1 .2 1.5.2 4.7.2s3.6 0 4.8-.2c1.2 0 2-.2 2.8-.5.8-.3 1.5-.7 2.2-1.3.6-.7 1-1.4 1.3-2 .3-.8.4-1.7.5-3 .2-1 .2-1.5.2-4.7 0-3 0-3.6-.2-4.8 0-1.2-.2-2-.5-2.8-.3-.7-.7-1.4-1.3-2-.7-.7-1.4-1-2-1.4-.8-.3-1.7-.4-3-.5h-4.7zm0 5.6c-3.3 0-6 2.7-6 6s2.7 6 6 6 6-2.7 6-6-2.7-6-6-6zm0 10c-2.2 0-4-1.8-4-4s1.8-4 4-4 4 1.8 4 4-1.8 4-4 4zm6.2-11.5c-.7 0-1.4.6-1.4 1.4 0 .6.7 1.3 1.4 1.3.8 0 1.5-.7 1.5-1.4 0-1-.7-1.5-1.5-1.5z"/></symbol><symbol id="icons-social-icon-pinterest"><path fill-rule="evenodd" d="M29.8.2H2c-1 0-2 1-2 2V30c0 1 1 2 2 2h7.3c0-1.3 0-3.5.4-4.6l2.2-9s-.7-1-.7-2.6c0-2.4 1.4-4.3 3.2-4.3 1.4 0 2.2 1.2 2.2 2.4 0 1.4-1 3.7-1.5 5.7-.4 1.8 1 3.2 2.6 3.2 3 0 5.2-4 5.2-9 0-3.5-2.4-6-6.8-6-5 0-8 3.6-8 7.7C8 17 8.5 18 9 19c.3.4.5.4.3 1 0 .2-.2 1-.4 1.2 0 .4-.3.6-.7.4C6 20.6 5 18.2 5 15.4 5 10.7 9 5 16.6 5 23 5 27 9.8 27 14.7c0 6.4-3.5 11.2-8.8 11.2-1.8 0-3.5-1-4-2L13 28.2c-.3 1.2-1 2.7-1.6 3.6H30c1 0 2-1 2-2V2c-.2-1-1.2-2-2.2-2z"/></symbol><symbol id="icons-social-icon-rss"><path fill-rule="evenodd" d="M30 32H2c-1 0-2-1-2-2.2V2c0-1 1-2 2-2h28c1 0 2 1 2 2v28c0 1-1 2-2 2zM4.6 12.3v4.3c2.8 0 5.4 1.2 7.4 3 2 2 3.2 4.7 3.2 7.6h4.3c0-4-1.7-7.8-4.3-10.5-2.7-2.7-6.4-4.4-10.5-4.4zm0-7.7V9C14.7 9 23 17.2 23 27.3h4.3c0-6.2-2.6-12-6.6-16-4-4-9.8-6.6-16-6.6zm3 16.5c-1.7 0-3 1.3-3 3s1.3 3 3 3 3-1.3 3-3-1.3-3-3-3z"/></symbol><symbol id="icons-social-icon-twitter"><path fill-rule="evenodd" d="M29.8 31.8H2.2c-1 0-2-1-2-2V2.2c0-1 1-2 2-2h27.6c1 0 2 1 2 2v27.6c0 1-1 2-2 2zm-4-21.6l-2 .7c.7-.6 1.3-1.4 1.6-2.3-.8.5-1.6.8-2.5 1C22 9 21 8.5 20 8.5c-2 0-3.7 1.7-3.7 3.8v.8c-3 0-6-1.6-7.8-4-.4.7-.6 1.3-.6 2 0 1.3.6 2.5 1.7 3.2-.7 0-1.2 0-1.8-.4 0 2 1.3 3.5 3 3.8H9.3c.5 1.6 1.8 2.7 3.6 2.7-1.5 1-3 1.7-5 1.7H7c2 1 4 1.7 6 1.7 7.2 0 11-6 11-11v-.5c.7-.5 1.4-1.2 2-2z"/></symbol><symbol id="icons-social-icon-youtube" viewBox="0 0 64 64"><path d="M59.9 64H4.1C1.9 64 0 62.1 0 59.9V4.1C0 1.9 1.9 0 4.1 0H60c2.1 0 4 1.9 4 4.1V60c0 2.1-1.9 4-4.1 4zm-9-39.8s-.3-2.7-1.5-3.8c-1.5-1.5-3.1-1.5-3.8-1.6-5.4-.3-13.4-.3-13.4-.3s-8.1 0-13.6.3c-.8.1-2.4.1-3.8 1.6-1.2 1.2-1.5 3.8-1.5 3.8s-.3 3.1-.3 6.3v2.9c0 3.1.3 6.3.3 6.3s.3 2.7 1.5 3.8c1.5 1.5 3.4 1.5 4.3 1.6 3.1.3 13.1.3 13.1.3s8.1 0 13.6-.5c.8-.1 2.4-.1 3.8-1.6 1.2-1.2 1.5-3.8 1.5-3.8s.3-3.1.3-6.3v-2.9c-.2-2.9-.5-6.1-.5-6.1zM27.2 37.8V25.4l11.9 6.3-11.9 6.1z"/></symbol></svg>