<svg xmlns="http://www.w3.org/2000/svg" width="216" height="75" viewBox="0 0 216 75">
  <defs>
    <linearGradient id="a" x1="879.429" x2="856.352" y1="495.527" y2="509.97" gradientUnits="userSpaceOnUse" gradientTransform="matrix(0.7071 0.7071 0.7071 -0.7071 -947.4174 -225.4017)">
      <stop offset="0" stop-color="#D6FFA1"/>
      <stop offset=".326" stop-color="#93E2A7"/>
      <stop offset="1" stop-color="#00A3B5"/>
    </linearGradient>
    <linearGradient id="b" x1="866.01" x2="895.934" y1="507.865" y2="500.043" gradientUnits="userSpaceOnUse" gradientTransform="matrix(0.7071 0.7071 0.7071 -0.7071 -947.4174 -225.4017)">
      <stop offset="0" stop-color="#FF177B"/>
      <stop offset=".672" stop-color="#FFA976"/>
      <stop offset="1" stop-color="#FFEC73"/>
    </linearGradient>
    <linearGradient id="c" x1="882.713" x2="850.268" y1="484.574" y2="503.663" gradientUnits="userSpaceOnUse" gradientTransform="matrix(0.7071 0.7071 0.7071 -0.7071 -947.4174 -225.4017)">
      <stop offset="0" stop-color="#63FFD4"/>
      <stop offset=".485" stop-color="#32A0BA"/>
      <stop offset=".835" stop-color="#1262A9"/>
      <stop offset="1" stop-color="#064AA2"/>
    </linearGradient>
    <linearGradient id="d" x1="894.492" x2="874.515" y1="499.728" y2="473.41" gradientUnits="userSpaceOnUse" gradientTransform="matrix(0.7071 0.7071 0.7071 -0.7071 -947.4174 -225.4017)">
      <stop offset="0" stop-color="#FF4521"/>
      <stop offset=".341" stop-color="#D43E65"/>
      <stop offset=".793" stop-color="#9F36B9"/>
      <stop offset="1" stop-color="#8A33DB"/>
    </linearGradient>
  </defs>
  <path d="M215.707 63.768c0 6.53-4.797 10.59-11.322 10.59H12.57C6.044 74.36.75 69.062.75 62.532V12.575C.75 6.045 6.043.75 12.57.75h191.814c6.525 0 11.322 5.295 11.322 11.824v51.194z"/>
  <path fill="#FFF" d="M204.385 75.108H12.57C5.64 75.108 0 69.466 0 62.53V12.574C0 5.64 5.64 0 12.57 0h191.814c6.77 0 12.072 5.523 12.072 12.574v51.194c0 6.783-4.85 11.34-12.07 11.34zM12.57 1.5C6.468 1.5 1.5 6.468 1.5 12.574V62.53c0 6.108 4.967 11.078 11.07 11.078h191.814c6.324 0 10.572-3.955 10.572-9.84V12.573c0-6.21-4.645-11.074-10.572-11.074H12.57z"/>
  <g fill="#FFF">
    <path d="M147.652 53.585l-1.615 1.52c-.37.206-.742.444-1.113.613-1.12.51-2.26.638-3.273.638-1.07 0-2.76-.07-4.49-1.316-2.39-1.688-3.44-4.588-3.44-7.114 0-5.23 4.26-7.798 7.73-7.798 1.22 0 2.47.304 3.48.945 1.69 1.113 2.12 2.562 2.37 3.34l-7.93 3.205-2.6.2c.84 4.29 3.74 6.785 6.95 6.785 1.6 0 2.79-.52 3.88-1.062 0 .01.22-.11.07.05zm-4.787-8.533c.645-.234.98-.438.98-.906 0-1.348-1.524-2.904-3.345-2.904-1.35 0-3.88 1.05-3.88 4.695 0 .57.067 1.176.103 1.78l6.142-2.665z"/>
    <path d="M131.064 53.323c0 1.312.234 1.516 1.344 1.617.578.068 1.152.1 1.725.166l-1.248.743h-5.947c.78-1.02.914-1.12.914-1.79v-.76l-.014-20.07h-2.625l2.527-1.22h4.824c-1.045.6-1.357.97-1.492 2.15l-.008 19.14z"/>
    <path d="M121.842 41.784c.773.637 2.393 1.988 2.393 4.553 0 2.5-1.41 3.677-2.83 4.792-.438.43-.945.91-.945 1.65 0 .74.51 1.15.877 1.45l1.22.94c1.48 1.25 2.83 2.39 2.83 4.73 0 3.17-3.07 6.37-8.876 6.37-4.88 0-7.25-2.33-7.25-4.83 0-1.22.61-2.94 2.6-4.12 2.1-1.28 4.93-1.45 6.45-1.55-.47-.61-1.01-1.257-1.01-2.3 0-.57.17-.91.34-1.318-.37.035-.74.07-1.08.07-3.58 0-5.6-2.67-5.6-5.3 0-1.554.71-3.274 2.16-4.52 1.93-1.584 4.22-1.857 6.04-1.857h6.96l-2.16 1.22h-2.093zm-2.39 14.98c-.278-.035-.444-.035-.778-.035-.305 0-2.13.06-3.54.54-.748.27-2.907 1.08-2.907 3.47s2.33 4.11 5.94 4.11c3.237 0 4.958-1.56 4.958-3.65-.002-1.726-1.115-2.63-3.674-4.458zm.968-6.41c.78-.778.848-1.855.848-2.467 0-2.427-1.445-6.207-4.252-6.207-.875 0-1.823.438-2.36 1.118-.57.703-.742 1.615-.742 2.492 0 2.26 1.317 6.008 4.217 6.008.85 0 1.76-.41 2.29-.945zm-19.5 5.932c-5.365 0-8.235-4.178-8.235-7.96 0-4.417 3.608-8.198 8.74-8.198 4.96 0 8.068 3.884 8.068 7.962 0 3.98-3.07 8.196-8.574 8.196zm4.22-2.73c.815-1.08 1.013-2.427 1.013-3.74 0-2.973-1.416-8.64-5.6-8.64-1.114 0-2.235.435-3.043 1.145-1.318 1.19-1.553 2.67-1.553 4.12 0 3.34 1.647 8.84 5.737 8.84 1.32 0 2.668-.64 3.445-1.71zm-22.18 2.73c-5.365 0-8.23-4.178-8.23-7.96 0-4.417 3.61-8.198 8.74-8.198 4.957 0 8.06 3.884 8.06 7.962 0 3.98-3.066 8.196-8.57 8.196zm4.22-2.73c.81-1.08 1.013-2.427 1.013-3.74 0-2.973-1.42-8.64-5.6-8.64-1.118 0-2.227.435-3.037 1.145-1.32 1.19-1.554 2.67-1.554 4.12 0 3.34 1.654 8.84 5.737 8.84 1.31 0 2.66-.64 3.44-1.71zm-14.595 1.56L68.06 56.15c-1.832.29-3.478.544-5.22.544-8.728 0-12.052-6.424-12.052-11.45 0-6.14 4.71-11.83 12.778-11.83 1.707 0 3.35.25 4.846.657 2.37.67 3.48 1.49 4.173 1.97l-2.628 2.5-1.108.25.79-1.26c-1.07-1.04-3.04-2.97-6.77-2.97-5 0-8.76 3.8-8.76 9.34 0 5.95 4.3 11.55 11.19 11.55 2.02 0 3.07-.405 4.01-.786v-5.1l-4.78.26 2.53-1.36h6.7l-.82.79c-.22.187-.25.25-.315.503-.035.29-.065 1.203-.065 1.525v3.86zm84.795-1.386v8.596h-1.708V40.452h1.707v2.49c1.11-1.608 3.14-2.886 5.5-2.886 4.23 0 7.08 3.21 7.08 8.294 0 5.05-2.85 8.327-7.09 8.327-2.23.002-4.23-1.147-5.51-2.948zm10.753-5.378c0-3.83-1.998-6.753-5.54-6.753-2.198 0-4.3 1.72-5.214 3.23v7c.91 1.51 3.01 3.3 5.21 3.3 3.54 0 5.54-2.95 5.54-6.79zm4.164 7.932v-21.87h1.707v21.87h-1.707zm20.86 4.626c.364.16.987.263 1.384.263 1.05 0 1.78-.428 2.43-1.936l1.25-2.82-6.72-15.965h1.9l5.77 13.834 5.72-13.834h1.93l-8.2 19.314c-.85 1.99-2.19 2.947-4.023 2.947-.552 0-1.28-.1-1.706-.23l.29-1.574zm-4.985-4.673c-.115-.55-.2-1.03-.264-1.437-.053-.403-.082-.815-.082-1.233-.586.858-1.414 1.573-2.475 2.137-1.05.566-2.06.846-3.44.846-1.66 0-2.95-.41-3.87-1.24-.92-.828-1.38-1.95-1.38-3.37s.67-2.573 2.01-3.454c1.338-.885 3.06-1.324 5.19-1.324h3.987v-1.967c0-1.134-.39-2.023-1.16-2.67-.77-.646-1.86-.975-3.266-.975-1.29 0-2.334.3-3.13.88-.786.595-1.185 1.33-1.185 2.218h-1.745l-.04-.084c-.06-1.195.482-2.246 1.65-3.15 1.153-.905 2.67-1.36 4.54-1.36 1.86 0 3.37.448 4.5 1.342 1.134.886 1.702 2.164 1.702 3.837v7.81c0 .562.023 1.104.096 1.632.07.53.186 1.057.34 1.566h-1.967zm-6.057-1.244c1.45 0 2.49-.323 3.557-.965 1.06-.638 1.777-1.47 2.156-2.475v-3.04h-4c-1.53 0-2.793.338-3.79 1.02-.995.682-1.5 1.505-1.5 2.462 0 .902.317 1.625.956 2.172.637.553 1.508.826 2.62.826z"/>
  </g>
  <path fill="none" d="M28.498 47.46l5.476-5.477h-.002l-5.474 5.477L11.02 29.985l17.478 17.478L10.993 64.97l17.505-17.507 5.5 5.5H34"/>
  <path fill="url(#a)" d="M33.972 41.983l-21.336-11.73c-.604-.332-1.163-.41-1.615-.27L28.5 47.46l5.472-5.477z"/>
  <path fill="url(#b)" d="M34 52.963l7.284-4.005c1.477-.815 1.477-2.143 0-2.954l-7.31-4.02-5.477 5.476L34 52.963z"/>
  <path fill="url(#c)" d="M11.02 29.985c-.65.203-1.07.86-1.07 1.854l.005 31.28c0 .98.407 1.63 1.038 1.84L28.5 47.46 11.02 29.984z"/>
  <path fill="url(#d)" d="M10.993 64.97c.454.152 1.024.08 1.643-.26L34 52.964l-5.5-5.5L10.992 64.97z"/>
  <path fill="#FFF" d="M51.796 21.803V11.126h4.706c2.24 0 3.473 1.52 3.473 3.346 0 1.81-1.248 3.33-3.473 3.33h-2.834v4h-1.872zm6.258-7.33c0-1.025-.752-1.697-1.81-1.697H53.67v3.377h2.577c1.057 0 1.81-.672 1.81-1.68zm10.178 7.33l-.785-2.064H62.55l-.784 2.06h-2.13l4.194-10.68h2.337L70.36 21.8h-2.128zM64.998 13l-1.92 5.09h3.84L65 13zm-1.632-3.923c0-.896.752-1.648 1.648-1.648s1.616.75 1.616 1.64c0 .89-.72 1.63-1.616 1.63s-1.648-.74-1.648-1.64zm2.464 0c0-.464-.368-.832-.816-.832-.464 0-.832.368-.832.832 0 .448.368.833.832.833.448 0 .816-.384.816-.833z"/>
</svg>
