<svg xmlns="http://www.w3.org/2000/svg" width="135" height="40" viewBox="0 0 135 40">
  <path fill="#A6A6A6" d="M130.23 40H4.76C2.153 40 0 37.872 0 35.267V4.727C0 2.12 2.153 0 4.76 0h125.468C132.834 0 135 2.12 135 4.726v30.54c0 2.606-2.166 4.734-4.77 4.734z"/>
  <path d="M134.032 35.268c0 2.116-1.714 3.83-3.834 3.83H4.728c-2.118 0-3.838-1.714-3.838-3.83V4.725C.89 2.61 2.61.89 4.73.89h125.467c2.12 0 3.834 1.72 3.834 3.835l.01 30.543z"/>
  <path fill="#FFF" d="M30.16 19.784c-.03-3.223 2.638-4.79 2.76-4.864-1.51-2.203-3.853-2.504-4.676-2.528-1.967-.207-3.875 1.177-4.877 1.177-1.022 0-2.565-1.16-4.228-1.13-2.14.03-4.15 1.27-5.24 3.19-2.27 3.92-.58 9.69 1.59 12.86 1.08 1.55 2.35 3.28 4.01 3.22 1.62-.07 2.23-1.04 4.19-1.04 1.94 0 2.51 1.03 4.2.99 1.74-.03 2.84-1.56 3.89-3.13 1.25-1.78 1.76-3.53 1.78-3.62-.04-.01-3.39-1.29-3.42-5.15zm-3.2-9.478c.873-1.093 1.47-2.58 1.305-4.09-1.265.057-2.848.875-3.758 1.945-.806.95-1.526 2.49-1.34 3.94 1.42.11 2.88-.71 3.792-1.79zm18.215 21.198H43.23V18.742h1.945v12.762zm5.075-12.456c-.515 1.812-1.127 3.3-1.835 4.464l-1.206.126c.52-1.44.9-2.91 1.13-4.41l1.91-.18zm9.523 12.456h-2.07L56.57 27.94h-3.943l-1.08 3.564H49.53l3.907-12.132h2.412l3.92 12.132zm-3.546-5.06L55.2 23.278c-.107-.323-.31-1.086-.61-2.286h-.037c-.12.517-.312 1.28-.576 2.287l-1.007 3.16h3.25zm13.59.576c0 1.49-.403 2.665-1.208 3.53-.72.768-1.62 1.15-2.69 1.15-1.15 0-1.98-.413-2.49-1.24h-.03v4.607h-1.94v-9.433c0-.937-.03-1.896-.07-2.88h1.71l.11 1.387h.03c.65-1.04 1.63-1.56 2.95-1.56 1.03 0 1.89.41 2.58 1.23.69.82 1.03 1.89 1.03 3.22zm-1.98.074c0-.852-.193-1.554-.577-2.105-.42-.58-.984-.87-1.692-.87-.48 0-.916.16-1.305.48-.39.31-.645.73-.765 1.25-.06.24-.09.44-.09.59v1.46c0 .63.195 1.17.585 1.61.39.44.897.66 1.52.66.733 0 1.303-.28 1.71-.85.41-.57.613-1.31.613-2.24zm12.043-.074c0 1.49-.403 2.665-1.208 3.53-.72.768-1.613 1.15-2.682 1.15-1.152 0-1.98-.413-2.484-1.24h-.035v4.607h-1.94v-9.433c0-.937-.02-1.896-.07-2.88h1.71l.11 1.387h.04c.65-1.04 1.63-1.56 2.95-1.56 1.04 0 1.9.41 2.59 1.23.69.82 1.04 1.89 1.04 3.22zm-1.982.074c0-.852-.19-1.554-.576-2.105-.42-.58-.984-.87-1.69-.87-.48 0-.917.16-1.306.48-.39.31-.646.73-.766 1.25-.06.24-.09.44-.09.59v1.46c0 .63.195 1.17.584 1.61.39.44.898.66 1.52.66.733 0 1.304-.28 1.712-.85.407-.57.612-1.31.612-2.24zm13.23 1.01c0 1.03-.36 1.87-1.077 2.52-.79.707-1.89 1.06-3.3 1.06-1.3 0-2.35-.25-3.14-.755l.45-1.62c.85.51 1.79.77 2.81.77.73 0 1.3-.17 1.71-.5.41-.33.62-.77.62-1.33 0-.5-.17-.91-.5-1.25-.33-.34-.89-.65-1.67-.94-2.12-.8-3.19-1.96-3.19-3.48 0-1 .38-1.82 1.12-2.45.75-.64 1.74-.96 2.97-.96 1.11 0 2.02.19 2.76.57l-.49 1.58c-.68-.38-1.46-.56-2.32-.56-.68 0-1.212.17-1.6.5-.32.3-.48.66-.48 1.1 0 .473.184.87.56 1.182.32.288.91.6 1.76.936 1.046.42 1.81.91 2.306 1.48s.74 1.262.74 2.103zm6.425-3.89h-2.14v4.248c0 1.08.376 1.62 1.132 1.62.348 0 .637-.03.865-.09l.053 1.476c-.383.145-.887.216-1.512.216-.76 0-1.36-.233-1.79-.702-.43-.468-.65-1.253-.65-2.357v-4.41h-1.28v-1.458h1.28v-1.602l1.91-.576v2.17h2.14v1.45zm9.667 2.846c0 1.342-.386 2.446-1.153 3.31-.805.89-1.87 1.333-3.203 1.333-1.285 0-2.31-.426-3.07-1.278-.762-.852-1.143-1.926-1.143-3.222 0-1.356.4-2.466 1.18-3.33.79-.864 1.85-1.296 3.18-1.296 1.29 0 2.32.426 3.1 1.277.75.828 1.12 1.896 1.12 3.205zm-2.017.06c0-.806-.174-1.497-.523-2.075-.408-.697-.988-1.047-1.746-1.047-.78 0-1.373.35-1.78 1.047-.35.578-.522 1.28-.522 2.11 0 .81.174 1.5.52 2.077.42.698 1.01 1.048 1.765 1.048.744 0 1.326-.355 1.746-1.065.358-.59.54-1.288.54-2.094zm8.332-2.654c-.19-.036-.395-.054-.61-.054-.685 0-1.214.258-1.585.773-.324.457-.486 1.033-.486 1.73v4.59h-1.943l.02-5.995c0-1.008-.02-1.926-.07-2.754h1.7l.07 1.674h.06c.21-.576.53-1.037.98-1.386.43-.312.9-.468 1.41-.468.18 0 .34.012.49.035v1.86zm8.695 2.25c0 .35-.025.642-.072.882h-5.832c.023.864.307 1.524.846 1.98.492.408 1.13.61 1.908.61.863 0 1.65-.137 2.357-.412l.307 1.35c-.828.36-1.807.54-2.934.54-1.357 0-2.422-.398-3.195-1.197-.773-.8-1.16-1.87-1.16-3.22 0-1.32.36-2.42 1.078-3.3.758-.94 1.777-1.41 3.06-1.41 1.26 0 2.216.46 2.864 1.4.516.74.773 1.66.773 2.75zm-1.853-.504c.012-.576-.115-1.073-.38-1.494-.335-.54-.85-.81-1.548-.81-.64 0-1.15.264-1.55.79-.33.422-.52.926-.58 1.514h4.05zM47.84 7.778h-1.872v5.655H44.92V7.778h-1.862v-.882h4.782v.882zm5.14 3.075c0 .188-.013.346-.038.475H49.8c.012.466.163.82.454 1.067.266.22.608.33 1.028.33.466 0 .89-.074 1.27-.223l.165.728c-.446.194-.973.29-1.58.29-.73 0-1.306-.214-1.723-.644s-.625-1.007-.625-1.73c0-.712.19-1.304.58-1.776.4-.504.95-.756 1.65-.756.67 0 1.19.252 1.54.756.28.4.42.895.42 1.483zm-1-.27c.008-.312-.06-.58-.202-.806-.182-.29-.46-.437-.834-.437-.343 0-.62.142-.835.427-.18.227-.28.498-.31.815h2.18zm.43-3.843l-1.175 1.406h-.728l.844-1.406h1.06zm3.14 6.693h-1.048V6.556h1.048v6.877zm5.743-2.58c0 .188-.014.346-.04.475H58.11c.015.466.166.82.457 1.067.266.22.608.33 1.028.33.466 0 .89-.074 1.27-.223l.165.728c-.447.194-.974.29-1.582.29-.73 0-1.305-.214-1.722-.644s-.625-1.007-.625-1.73c0-.712.2-1.304.59-1.776.41-.504.96-.756 1.65-.756.68 0 1.2.252 1.55.756.28.4.42.895.42 1.483zm-1-.27c.007-.312-.062-.58-.203-.806-.182-.29-.46-.437-.834-.437-.343 0-.62.142-.835.427-.17.227-.27.498-.31.815h2.19zm.428-3.843l-1.17 1.406h-.72l.85-1.406h1.06zm5.46 2.105l-.2.795c-.26-.13-.57-.194-.91-.194-.46 0-.82.154-1.09.46-.27.308-.4.698-.4 1.17 0 .498.14.892.42 1.183s.64.43 1.07.43c.33 0 .64-.07.95-.2l.15.78c-.34.16-.77.24-1.3.24-.72 0-1.29-.22-1.71-.66s-.64-1.02-.64-1.75.23-1.33.69-1.8 1.08-.7 1.86-.7c.44 0 .82.07 1.13.22zm5.53 4.588h-1.05v-2.68c0-.845-.31-1.268-.95-1.268-.48 0-.82.245-1 .735-.03.103-.05.23-.05.377v2.835h-1.04V6.556h1.05v2.84h.02c.33-.516.8-.774 1.42-.774.44 0 .79.142 1.08.427.36.35.54.88.54 1.58v2.8zm5.38 0h-.94l-.08-.543h-.03c-.32.433-.78.65-1.37.65-.44 0-.8-.143-1.07-.427-.24-.258-.37-.58-.37-.96 0-.576.24-1.015.73-1.32.48-.303 1.16-.452 2.03-.445V10.3c0-.62-.32-.93-.98-.93-.46 0-.87.116-1.23.348l-.21-.688c.44-.27.98-.407 1.62-.407 1.234 0 1.85.65 1.85 1.95v1.736c0 .47.025.84.07 1.12zM76 11.813v-.727c-1.157-.02-1.735.297-1.735.95 0 .246.066.43.2.553.136.12.308.18.513.18.23 0 .445-.08.64-.22.198-.15.32-.33.364-.56.01-.05.016-.12.016-.19zm5.345-2.173c-.104-.02-.213-.028-.33-.028-.367 0-.652.14-.854.417-.17.24-.26.55-.26.93v2.47h-1.05l.01-3.23c0-.55-.01-1.04-.04-1.49h.92l.04.9h.03c.11-.31.29-.56.53-.75.23-.17.49-.25.76-.25.1 0 .19 0 .27.02v.99zm5.47-.92c-.025.38-.04.827-.04 1.338v2.696c0 1.015-.226 1.727-.677 2.134-.414.375-.996.562-1.746.562-.655 0-1.183-.123-1.583-.37l.24-.804c.39.24.84.36 1.34.36.92 0 1.38-.5 1.38-1.495v-.45h-.02c-.29.48-.76.72-1.39.72-.57 0-1.04-.21-1.41-.65-.37-.43-.56-.98-.56-1.65 0-.75.21-1.36.64-1.83.39-.43.87-.65 1.44-.65.64 0 1.1.25 1.38.75h.02l.04-.65h.92zm-1.085 2.696v-.834c0-.317-.1-.588-.298-.815-.2-.227-.46-.34-.784-.34-.357 0-.65.15-.88.447-.23.298-.347.695-.347 1.193 0 .453.11.818.32 1.096.22.304.52.456.91.456.24 0 .45-.07.63-.21.19-.14.32-.33.4-.57.04-.12.06-.26.06-.43zm6.79-.563c0 .188-.016.346-.04.475h-3.144c.014.466.164.82.455 1.067.27.22.61.33 1.03.33.47 0 .89-.074 1.27-.223l.17.728c-.44.194-.97.29-1.58.29-.73 0-1.3-.214-1.72-.644-.41-.43-.62-1.007-.62-1.73 0-.712.2-1.304.58-1.776.41-.504.96-.756 1.65-.756.68 0 1.2.252 1.54.756.28.4.42.895.42 1.483zm-1-.27c.006-.312-.06-.58-.205-.806-.182-.29-.46-.437-.834-.437-.34 0-.62.142-.83.427-.17.227-.27.498-.31.815h2.18zm5.012-.943c-.102-.02-.21-.028-.33-.028-.367 0-.65.14-.852.417-.174.24-.262.55-.262.93v2.47h-1.05l.01-3.23c0-.55-.01-1.04-.036-1.49h.91l.037.9h.03c.1-.31.28-.56.52-.75.23-.17.48-.25.75-.25.09 0 .18 0 .26.02v.99zm8.364 3.793h-.932l-.047-.757h-.03c-.296.576-.8.864-1.51.864-.57 0-1.042-.223-1.417-.67s-.562-1.024-.562-1.735c0-.763.203-1.38.61-1.853.394-.44.88-.66 1.454-.66.635 0 1.078.213 1.33.64h.02V6.556h1.047v5.607c0 .46.01.882.04 1.27zm-1.086-1.988v-.786c0-.14-.01-.25-.03-.33-.058-.26-.185-.47-.38-.64s-.428-.26-.7-.26c-.39 0-.696.15-.92.46s-.337.71-.337 1.19c0 .46.108.84.323 1.13.227.31.53.46.914.46.344 0 .62-.13.828-.39.2-.24.303-.53.303-.86zm6.44 1.988h-.94l-.078-.543h-.03c-.325.433-.784.65-1.378.65-.447 0-.807-.143-1.078-.427-.246-.258-.367-.58-.367-.96 0-.576.24-1.015.72-1.32.48-.303 1.16-.452 2.03-.445V10.3c0-.62-.33-.93-.98-.93-.47 0-.88.116-1.23.348l-.22-.688c.44-.27.98-.407 1.61-.407 1.23 0 1.85.65 1.85 1.95v1.736c-.01.47.02.84.06 1.12zm-1.087-1.62v-.727c-1.157-.02-1.735.297-1.735.95 0 .246.068.43.203.553.14.12.31.18.51.18.24 0 .45-.08.65-.22.2-.15.32-.33.36-.56.02-.05.02-.12.02-.19zm6.946 1.62h-1.05v-2.7c0-.832-.32-1.248-.95-1.248-.31 0-.56.114-.76.343-.2.23-.3.5-.3.808v2.796H112v-3.366c0-.414-.014-.863-.04-1.35h.923l.05.738h.03c.12-.23.302-.418.542-.57.282-.175.6-.264.95-.264.44 0 .805.142 1.096.427.36.35.55.87.55 1.562v2.82zm4.72-1.353c0 .437-.16.79-.49 1.054-.33.265-.77.397-1.34.397-.54 0-.99-.1-1.37-.32l.22-.77c.36.22.75.33 1.15.33.53 0 .8-.19.8-.59 0-.17-.06-.32-.18-.43-.118-.11-.325-.22-.62-.33-.84-.31-1.26-.76-1.26-1.36 0-.4.152-.74.463-1.02s.724-.4 1.235-.4c.47 0 .87.1 1.2.29l-.226.75c-.3-.18-.62-.27-.96-.27-.22 0-.39.06-.514.16-.12.11-.184.24-.184.4 0 .16.064.298.19.4.11.095.327.2.64.32.82.306 1.228.78 1.228 1.42z"/>
</svg>
