<svg xmlns="http://www.w3.org/2000/svg" xmlns:xlink="http://www.w3.org/1999/xlink" viewBox="0 0 640 480">
  <g id="flag-nz-b">
    <g id="flag-nz-a">
      <path transform="translate(0 -.33)" d="M0 0v.5L1 0z"/>
      <path transform="rotate(-36 .5 -.16)" d="M0 0v-.5L1 0z"/>
    </g>
    <use transform="scale(-1 1)" xlink:href="#a"/>
    <use transform="rotate(72 0 0)" xlink:href="#a"/>
    <use transform="rotate(-72 0 0)" xlink:href="#a"/>
    <use transform="scale(-1 1) rotate(72)" xlink:href="#a"/>
  </g>
  <clipPath id="flag-nz-c">
    <path d="M0 0h600v300H0z"/>
  </clipPath>
  <clipPath id="flag-nz-d">
    <path d="M0 0l300 150H0zm300 0h300L300 150zm0 150h300v150zm0 0v150H0z"/>
  </clipPath>
  <path d="M0 0h640v480H0z" fill="#00247d" fill-rule="evenodd"/>
  <g transform="translate(-92.95 36.12) scale(.66825)">
    <use fill="#fff" height="100%" width="100%" xlink:href="#b" transform="matrix(45.4 0 0 45.4 900 120)"/>
    <use fill="#cc142b" height="100%" width="100%" xlink:href="#b" transform="matrix(30 0 0 30 900 120)"/>
  </g>
  <g transform="rotate(82 534.18 124.98) scale(.66825)">
    <use fill="#fff" height="100%" width="100%" xlink:href="#b" transform="rotate(-82 519.02 -457.67) scale(40.4)"/>
    <use fill="#cc142b" height="100%" width="100%" xlink:href="#b" transform="rotate(-82 519.02 -457.67) scale(25)"/>
  </g>
  <g transform="rotate(82 534.18 124.98) scale(.66825)">
    <use fill="#fff" height="100%" width="100%" xlink:href="#b" transform="rotate(-82 668.57 -327.67) scale(45.4)"/>
    <use fill="#cc142b" height="100%" width="100%" xlink:href="#b" transform="rotate(-82 668.57 -327.67) scale(30)"/>
  </g>
  <g transform="translate(-92.95 36.12) scale(.66825)">
    <use fill="#fff" height="100%" width="100%" xlink:href="#b" transform="matrix(50.4 0 0 50.4 900 480)"/>
    <use fill="#cc142b" height="100%" width="100%" xlink:href="#b" transform="matrix(35 0 0 35 900 480)"/>
  </g>
  <path clip-path="url(#flag-nz-c)" d="M0 0l600 300M0 300L600 0" transform="matrix(.60681 0 0 .73139 0 0)" stroke="#fff" stroke-width="60"/>
  <path clip-path="url(#flag-nz-d)" d="M0 0l600 300M0 300L600 0" transform="matrix(.60681 0 0 .73139 0 0)" stroke="#cc142b" stroke-width="40"/>
  <path style="line-height:normal;text-indent:0;text-align:start;text-decoration-line:none;text-decoration-style:solid;text-decoration-color:#000;text-transform:none;block-progression:tb;isolation:auto;mix-blend-mode:normal" clip-path="url(#flag-nz-c)" d="M151.7 0v79.37H0v60.68h151.7v79.37h60.69v-79.37h151.7V79.37H212.4V0z" color="#000" font-weight="400" font-family="sans-serif" white-space="normal" overflow="visible" fill="#fff"/>
  <path style="line-height:normal;text-indent:0;text-align:start;text-decoration-line:none;text-decoration-style:solid;text-decoration-color:#000;text-transform:none;block-progression:tb;isolation:auto;mix-blend-mode:normal" d="M163.84 0v91.5H0v36.41h163.84v91.5h36.41v-91.5H364.1v-36.4H200.25V0z" color="#000" font-weight="400" font-family="sans-serif" white-space="normal" overflow="visible" fill="#cc142b"/>
</svg>
