<svg width="17" height="15" viewBox="0 0 17 15" xmlns="http://www.w3.org/2000/svg"><path d="M5.13 4H8.73a.4.4 0 0 1 0 .8H8.3l-1.17 9.25a.4.4 0 0 1-.4.35H2.75a.4.4 0 0 1-.4-.35L1.18 4.8H.73a.4.4 0 1 1 0-.8h3.61V2.17L2.84.68a.4.4 0 1 1 .57-.56l1.6 1.6a.4.4 0 0 1 .11.28v2zm2.35.8h-5.5l1.12 8.8h3.27l1.11-8.8zm7.25 4v-.4c0-.66-.53-1.2-1.2-1.2h-2.4c-.66 0-1.2.54-1.2 1.2v.4h4.8zm.8 3.16v.44a2 2 0 0 1-2 2h-2.4a2 2 0 0 1-2-2v-.44a1.7 1.7 0 0 1-.4.04.4.4 0 1 1 0-.8c.26 0 .37-.06.64-.3.4-.36.67-.5 1.16-.5.5 0 .77.14 1.17.5.27.24.38.3.64.3.25 0 .36-.06.63-.3.4-.36.67-.5 1.16-.5.5 0 .77.14 1.17.5.27.24.38.3.63.3a.4.4 0 1 1 0 .8 1.7 1.7 0 0 1-.4-.04zm-5.6-.5v.94c0 .66.54 1.2 1.2 1.2h2.4c.67 0 1.2-.54 1.2-1.2v-.93c-.24-.22-.35-.27-.6-.27s-.36.06-.63.3c-.4.36-.67.5-1.16.5-.5 0-.76-.14-1.17-.5-.27-.24-.38-.3-.64-.3-.24 0-.35.05-.6.27zm-.8-3.06c0-1.1.9-2 2-2h2.4a2 2 0 0 1 2 2v.8a.4.4 0 0 1-.4.4h-5.6a.4.4 0 0 1-.4-.4v-.8z" fill="#000" fill-rule="nonzero"/></svg>