<svg viewBox="0 0 56 32" xmlns="http://www.w3.org/2000/svg" xmlns:xlink="http://www.w3.org/1999/xlink"><defs><polygon id="path-1" points="9.80186667 0.266352941 8.51386667 1.55858824 0.938933333 0.528941176 0.807333333 0.266352941"></polygon><path d="M0.336,10.3312941 L2.67866667,5.41647059 L0.336,0.753882353 L0.336,10.3312941 Z M6.53893333,12.7642353 L14.1138667,13.7938824 L16.184,11.7167059 L5.26773333,10.2343529 L6.53893333,12.7642353 Z" id="path-3"></path><polygon id="path-5" points="6.12266667 8.59105882 0.916533333 3.58023529 11.9756 1.84 12.7624 0.191058824 17.1341333 0.191058824 17.1341333 1.86164706 15.9385333 4.36894118 7.68133333 5.66964706 10.7156 8.59105882"></polygon><polygon id="path-7" points="5.45066667 16.416 0.9184 12.0508235 11.9774667 10.3105882 16.8270667 0.139294118 17.7809333 2.03670588 17.7809333 8.97882353 15.9394667 12.8395294 7.68226667 14.1402353 10.0464 16.416"></polygon><polygon id="path-9" points="4.74973333 15.7402353 0.917466667 12.0508235 11.9765333 10.3105882 16.8270667 0.139294118 17.1350667 0.752941176 17.1350667 10.3322353 15.9394667 12.8395294 7.68226667 14.1402353 9.3436 15.7402353 4.75066667 15.7402353"></polygon><polygon id="path-11" points="0.00186666667 12.9976471 1.00613333 12.8395294 4.54626667 5.41647059 1.89373333 0.139294118 0.00186666667 4.10541176"></polygon><polygon id="path-13" points="0.0830666667 0.681411765 4.34933333 4.78870588 2.57413333 15.9331765 7.79893333 13.0945882 9.06173333 4.90164706 4.67786667 0.681411765"></polygon><polygon id="path-15" points="0.0821333333 0.681411765 4.34933333 4.78870588 3.00533333 13.2216471 7.56373333 13.2216471 7.79893333 13.0945882 9.06173333 4.90164706 4.67693333 0.680470588 0.0821333333 0.680470588"></polygon><path d="M0.877333333,2.34541176 L3.416,4.78870588 L1.6408,15.9331765 L6.8656,13.0945882 L8.1284,4.90164706 L3.74453333,0.681411765 L0.877333333,0.681411765 L0.877333333,2.34541176 Z M15.9264,12.8687059 L11.6694667,10.6701176 L14.1596,9.22447059 L15.9264,10.1374118 L15.9264,12.8687059 Z M11.5826667,10.6258824 L11.5938667,10.6315294 L11.5826667,10.6258824 Z" id="path-17"></path><path d="M0.472266667,10.7011765 L1.2656,10.2710588 L2.5284,2.07811765 L0.472266667,0.0988235294 L0.472266667,10.7021176 L0.472266667,10.7011765 Z M6.06946667,7.84658824 L15.8573333,12.9025882 L15.3132,9.88988235 L8.5596,6.40094118 L6.06946667,7.84658824 Z M5.98266667,7.80235294 L5.99386667,7.808 L5.98266667,7.80235294 Z" id="path-19"></path><path d="M0.469466667,2.19952941 L10.2573333,7.25552941 L9.7132,4.24282353 L2.9596,0.753882353 L0.469466667,2.19952941 Z M0.382666667,2.15529412 L0.393866667,2.16094118 L0.382666667,2.15529412 Z" id="path-21"></path></defs><g id="rw-search-ctas-320" stroke="none" stroke-width="1" fill="none" fill-rule="evenodd"><g id="rw-320-search-GS328-01" transform="translate(-240.000000, -461.000000)"><g id="Group-10" transform="translate(8.000000, 221.000000)"><g id="Group-9" transform="translate(0.000000, 197.000000)"><g id="ll_mobile_icon" transform="translate(232.000000, 43.000000)"><g id="Group" transform="translate(15.866667, 13.176471)" fill="#575756" fill-rule="nonzero"><path d="M1.42146667,8.72188235 L5.3452,8.72188235 C5.77453333,8.72188235 6.02373333,8.99764706 6.02373333,9.37882353 C6.02373333,9.74682353 5.71106667,10.0103529 5.33213333,10.0103529 L0.860533333,10.0103529 C0.222133333,10.0103529 -0.0774666667,9.62917647 0.0270666667,8.98447059 L1.27773333,1.38635294 C1.35706667,0.938352941 1.57826667,0.715294118 1.95626667,0.715294118 C2.41266667,0.715294118 2.6992,1.07011765 2.60773333,1.58305882 L1.42146667,8.72188235 Z M10.5466667,5.97364706 C10.6773333,5.97364706 10.7557333,5.90870588 10.7818667,5.79011765 C11.0030667,4.62023529 10.4038667,4.10729412 9.45186667,4.10729412 C8.39533333,4.10729412 7.82226667,4.71152941 7.60106667,5.97364706 L10.5466667,5.97364706 Z M7.4312,7.03905882 L7.392,7.27529412 C7.2352,8.31341176 7.88666667,8.85364706 8.99546667,8.85364706 C9.47706667,8.85364706 9.9736,8.73505882 10.4682667,8.49882353 C10.5694914,8.44505936 10.680779,8.41331637 10.7949333,8.40564706 C11.1598667,8.40564706 11.3941333,8.66917647 11.3941333,9.024 C11.3941333,9.28752941 11.2373333,9.49741176 10.9377333,9.66870588 C10.3646667,9.984 9.71226667,10.1421176 8.97026667,10.1421176 C8.03133333,10.1421176 7.30053333,9.87858824 6.76573333,9.35247059 C6.23186667,8.81411765 6.01066667,8.10447059 6.08906667,7.22258824 C6.1012,7.05317647 6.19266667,6.52611765 6.3504,5.632 C6.70133333,3.792 7.95293333,2.93647059 9.45186667,2.93647059 C11.0422667,2.93647059 12.4114667,3.91058824 11.9942667,5.96047059 L11.942,6.19764706 C11.7982667,6.76329412 11.4856,7.03905882 10.9909333,7.03905882 L7.4312,7.03905882 Z M14.1586667,5.80329412 C14.0606276,6.24542801 13.9904869,6.69338545 13.9486667,7.14447059 C13.832,8.18258824 14.3668,8.81411765 15.3962667,8.81411765 C15.8788,8.81411765 16.3874667,8.656 16.9082667,8.34070588 L17.5214667,4.59482353 C17.0921333,4.35764706 16.5694667,4.23905882 15.9693333,4.23905882 C14.9930667,4.23905882 14.3929333,4.76423529 14.1586667,5.80329412 Z M18.0170667,9.69505882 C17.6913333,11.7985882 16.5834667,12.6268235 14.8232,12.6268235 C13.9486667,12.6268235 13.0629333,12.272 12.6065333,11.9021176 C12.3732,11.7327059 12.2546667,11.5350588 12.2546667,11.2856471 C12.2546667,10.9703529 12.5029333,10.6814118 12.8669333,10.6814118 C12.9976,10.6814118 13.1413333,10.7331765 13.3112,10.8254118 C13.8189333,11.1943529 14.3668,11.3778824 14.9268,11.3778824 C15.9049333,11.3778824 16.5442667,10.7727059 16.7132,9.616 C16.2245423,9.86658877 15.684081,9.99719599 15.1358667,9.99717647 C14.3276,9.99717647 13.6892,9.74682353 13.2188,9.23482353 C12.7633333,8.72282353 12.5673333,8.03858824 12.6326667,7.18305882 C12.6718667,6.68423529 12.7633333,6.14494118 12.8809333,5.55388235 C13.2328,3.81929412 14.3276,2.93741176 15.9964,2.93741176 C17.1444,2.93741176 18.1216,3.34588235 18.6293333,3.72705882 C18.8505333,3.89647059 18.9289333,4.09411765 18.8906667,4.33129412 L18.0170667,9.69505882 Z M24.0398667,5.97364706 C24.1705333,5.97364706 24.2489333,5.90870588 24.2750667,5.79011765 C24.4962667,4.62023529 23.8970667,4.10729412 22.9450667,4.10729412 C21.8885333,4.10729412 21.3154667,4.71152941 21.0942667,5.97364706 L24.0398667,5.97364706 Z M20.9253333,7.04 L20.8861333,7.27623529 C20.7293333,8.31435294 21.3808,8.85458824 22.4896,8.85458824 C22.9712,8.85458824 23.4677333,8.736 23.9624,8.49976471 C24.0636248,8.44600054 24.1749123,8.41425754 24.2890667,8.40658824 C24.654,8.40658824 24.8882667,8.67011765 24.8882667,9.02494118 C24.8882667,9.28847059 24.7314667,9.49835294 24.4318667,9.66964706 C23.8588,9.98494118 23.2064,10.1430588 22.4644,10.1430588 C21.5254667,10.1430588 20.7946667,9.87952941 20.2598667,9.35341176 C19.726,8.81505882 19.5048,8.10541176 19.5832,7.22352941 C19.5953333,7.05411765 19.6868,6.52705882 19.8445333,5.63294118 C20.1954667,3.79294118 21.4470667,2.93741176 22.946,2.93741176 C24.5364,2.93741176 25.9056,3.91152941 25.4884,5.96141176 L25.4361333,6.19858824 C25.2924,6.76423529 24.9797333,7.04 24.4850667,7.04 L20.9253333,7.04 Z M31.7314667,9.41835294 C31.6670667,9.85223529 31.444,10.0630588 31.0529333,10.0630588 C30.6236,10.0630588 30.3501333,9.72047059 30.4154667,9.23482353 L30.9754667,5.88141176 C31.1976,4.57976471 30.3501333,4.27764706 29.6324,4.27764706 C29.0724,4.27764706 28.5506667,4.42258824 28.0681333,4.71152941 L27.2990667,9.43152941 C27.2346667,9.85223529 27.0004,10.0630588 26.6205333,10.0630588 C26.1650667,10.0630588 25.9046667,9.70823529 25.9690667,9.22070588 L26.8034667,4.19858824 C26.8426667,3.94917647 26.9724,3.76564706 27.1954667,3.62070588 C27.9636,3.16141176 28.8110667,2.93647059 29.7369333,2.93647059 C30.5974667,2.93647059 31.2881333,3.17364706 31.7968,3.66117647 C32.3045333,4.14588235 32.4884,4.86964706 32.3316,5.82964706 L31.7314667,9.41835294 Z M34.874,8.41976471 C35.1484,8.69552941 35.5525333,8.84047059 36.0593333,8.84047059 C36.5689333,8.84047059 37.0514667,8.69552941 37.4817333,8.39341176 L38.0818667,4.71247059 C37.7692,4.48847059 37.1298667,4.23905882 36.5036,4.23905882 C35.5786667,4.23905882 34.9916,4.76423529 34.7573333,5.80329412 C34.6789333,6.13176471 34.6136,6.57882353 34.5482667,7.14447059 C34.4829333,7.70917647 34.6005333,8.12988235 34.874,8.41976471 Z M36.4,2.93647059 C37.1158667,2.93647059 37.7421333,3.09458824 38.3030667,3.39670588 L38.6549333,1.27905882 C38.7202667,0.846117647 38.9414667,0.635294118 39.3204,0.635294118 C39.7758667,0.635294118 40.0362667,0.990117647 39.9718667,1.47764706 L38.7454667,8.91764706 C38.6941333,9.19435294 38.6148,9.29976471 38.3534667,9.45788235 C37.6737841,9.91124658 36.8751486,10.1492123 36.0602667,10.1411765 C35.1876,10.1411765 34.4698667,9.87764706 33.922,9.33929412 C33.3750667,8.8 33.1408,8.04988235 33.2313333,7.07764706 C33.2705333,6.72282353 33.3489333,6.22305882 33.4796,5.55294118 C33.8314667,3.85694118 34.9524,2.93647059 36.4,2.93647059 Z" id="Shape"></path></g><g id="Group" transform="translate(22.400000, 12.759529)"><g id="Clipped"><mask id="mask-2" fill="white"><use xlink:href="#path-1"></use></mask><g id="a"></g><polygon id="Shape" fill="#EA5E65" fill-rule="nonzero" mask="url(#mask-2)" points="22.1386667 0.266352941 22.1386667 6.95811765 -5.264 3.504"></polygon></g></g><g id="Group" transform="translate(16.800000, 0.524235)"><g id="Clipped"><mask id="mask-4" fill="white"><use xlink:href="#path-3"></use></mask><g id="c"></g><polygon id="Shape" fill="#E20613" fill-rule="nonzero" mask="url(#mask-4)" points="4.14306667 0.138352941 27.7377333 -0.134588235 27.7377333 12.5016471 0.335066667 15.7392941"></polygon></g></g><g id="Group" transform="translate(0.000000, 8.994824)"><g id="Clipped"><mask id="mask-6" fill="white"><use xlink:href="#path-5"></use></mask><g id="e"></g><polygon id="Shape" fill="#81CFF4" fill-rule="nonzero" mask="url(#mask-6)" points="-9.67866667 8.59105882 -10.2666667 0.191058824 17.136 7.26870588"></polygon></g></g><g id="Group" transform="translate(0.000000, 0.524235)"><g id="Clipped"><mask id="mask-8" fill="white"><use xlink:href="#path-7"></use></mask><g id="g"></g><polyline id="Shape" fill="#F6A500" fill-rule="nonzero" mask="url(#mask-8)" points="15.694 -2.58352941 17.7809333 16.416 -1.456 -3.76"></polyline></g></g><g id="Group" transform="translate(0.000000, 0.524235)"><g id="Clipped"><mask id="mask-10" fill="white"><use xlink:href="#path-9"></use></mask><g id="i"></g><polygon id="Shape" fill="#EB6608" fill-rule="nonzero" mask="url(#mask-10)" points="-10.2666667 8.66164706 0.237066667 -2.99576471 17.136 15.7402353"></polygon></g></g><g id="Group" transform="translate(14.933333, 0.524235)"><g id="Clipped"><mask id="mask-12" fill="white"><use xlink:href="#path-11"></use></mask><g id="k"></g><polygon id="Shape" fill="#FFDC00" fill-rule="nonzero" mask="url(#mask-12)" points="0.00186666667 -5.23105882 6.944 -0.134588235 2.20266667 15.7392941"></polygon></g></g><g id="Group" transform="translate(4.666667, 15.583059)"><g id="Clipped"><mask id="mask-14" fill="white"><use xlink:href="#path-13"></use></mask><g id="m"></g><polyline id="Shape" fill="#2580C3" fill-rule="nonzero" mask="url(#mask-14)" points="-12.5953333 13.2225882 12.4693333 0.681411765 1.4616 18.1176471"></polyline></g></g><g id="Group" transform="translate(4.666667, 15.583059)"><g id="Clipped"><mask id="mask-16" fill="white"><use xlink:href="#path-15"></use></mask><g id="o"></g><polygon id="Shape" fill="#1DB4E9" fill-rule="nonzero" mask="url(#mask-16)" points="12.4693333 0.681411765 -12.5944 13.2225882 -13.5277333 1.70541176"></polygon></g></g><g id="Group" transform="translate(5.600000, 15.583059)"><g id="Clipped"><mask id="mask-18" fill="white"><use xlink:href="#path-17"></use></mask><g id="q"></g><polygon id="Shape" fill="#D2D700" fill-rule="nonzero" mask="url(#mask-18)" points="15.9264 18.8235294 0.877333333 17.1764706 11.536 0.681411765"></polygon></g></g><g id="Group" transform="translate(11.200000, 18.406588)"><g id="Clipped"><mask id="mask-20" fill="white"><use xlink:href="#path-19"></use></mask><g id="s"></g><polygon id="Shape" fill="#93C01F" fill-rule="nonzero" mask="url(#mask-20)" points="24.4561333 13.7308235 0.472266667 13.7308235 5.936 -2.14211765"></polygon></g></g><g id="Group" transform="translate(16.800000, 24.053647)"><g id="Clipped"><mask id="mask-22" fill="white"><use xlink:href="#path-21"></use></mask><g id="u"></g><polygon id="Shape" fill="#00A65D" fill-rule="nonzero" mask="url(#mask-22)" points="27.7386667 8.08376471 18.8561333 8.08376471 0.336 -7.78917647 27.7386667 -4.33505882"></polygon></g></g></g></g></g></g></g></svg>