<svg viewbox="0 0 87 32" xmlns="http://www.w3.org/2000/svg" xmlns:xlink="http://www.w3.org/1999/xlink"><defs><path id="a" d="M9.745.653L8.451 1.94.83.915.7.653h9.046z"/><path d="M.086 10.378l2.358-4.894L.086.837v9.541zm6.24 2.423l7.62 1.024 2.081-2.068-10.98-1.477 1.28 2.52z" id="c"/><path id="e" d="M5.494 8.85L.258 3.863l11.124-1.734.79-1.641h4.399v1.662l-1.203 2.497-8.305 1.295 3.053 2.91H5.494z"/><path id="g" d="M4.82 16.437L.258 12.091l11.124-1.735L16.262.228l.958 1.89V9.03l-1.852 3.845-8.305 1.295 2.38 2.267z"/><path id="i" d="M4.112 15.762L.258 12.091l11.124-1.735L16.262.228l.31.61v9.54l-1.204 2.497-8.305 1.295 1.671 1.592H4.112z"/><path id="k" d="M.62 13.032l1.011-.157 3.56-7.391L2.526.228.62 4.18v8.852z"/><path id="m" d="M.449.22L4.74 4.31l-1.784 11.1 5.254-2.828 1.27-8.159L5.071.22H.45z"/><path id="o" d="M.448.22l4.293 4.09-1.35 8.399h4.585l.235-.127 1.27-8.159L5.071.22H.448z"/><path d="M.357 1.878L2.91 4.31l-1.783 11.1 5.253-2.828 1.27-8.159L3.24.22H.357v1.659zm15.135 10.48l-4.28-2.19 2.505-1.44 1.775.908v2.721zm-4.369-2.235l.01.005-.01-.005z" id="q"/><path d="M.087 11.183l.798-.43 1.27-8.158L.087.623v10.56zm5.63-2.844l9.842 5.034-.546-3L8.222 6.9 5.716 8.34zm-.089-.045l.01.006-.01-.006z" id="s"/><path d="M.222 1.94l9.843 5.033-.547-3L2.728.5.221 1.94zm-.088-.046l.01.006-.01-.006z" id="u"/></defs><g fill="none" fill-rule="evenodd"><g fill="#575756"><path d="M16.935 21.837h3.913c.429 0 .676.272.676.649 0 .363-.311.622-.689.622h-4.459c-.638 0-.937-.376-.833-1.012l1.25-7.502c.077-.441.298-.662.675-.662.455 0 .74.35.65.856l-1.183 7.049zM25.996 17.864a1.592 1.592 0 0 0-1.144-.453c-.948 0-1.534.518-1.768 1.57-.079.35-.143.766-.195 1.271-.117 1.091.598 1.702 1.586 1.702.897 0 1.469-.532 1.73-1.585.09-.402.155-.817.194-1.245.052-.533-.078-.96-.403-1.26m.988-.947c.559.532.806 1.246.742 2.168a9.652 9.652 0 0 1-.26 1.596c-.364 1.661-1.483 2.557-2.926 2.557-.885 0-1.624-.26-2.21-.791-.586-.532-.832-1.26-.767-2.18a9.52 9.52 0 0 1 .26-1.597c.364-1.662 1.521-2.545 3.094-2.545.82 0 1.509.26 2.067.792M32.64 21.005a.577.577 0 0 1 .572-.375c.35 0 .624.246.624.61a1.5 1.5 0 0 1-.066.35c-.13.402-.415.779-.858 1.129-.442.35-1.026.519-1.768.519-.845 0-1.56-.272-2.132-.805-.572-.532-.819-1.271-.728-2.219.052-.454.13-.948.247-1.506.35-1.7 1.495-2.583 3.042-2.583 1.34 0 2.263.701 2.562 1.493.065.156.09.298.09.429 0 .402-.247.674-.663.674-.286 0-.467-.117-.545-.363-.195-.637-.702-.948-1.496-.948-.91 0-1.482.52-1.716 1.546-.09.4-.168.842-.208 1.322-.104 1.052.572 1.675 1.573 1.675.728 0 1.222-.311 1.47-.948M38.541 21.733l.234-1.455c-.507-.233-1-.35-1.481-.35-.846 0-1.56.35-1.56 1.117 0 .623.506 1.038 1.39 1.038.598 0 1.066-.117 1.417-.35zm1.197.324c-.04.247-.157.441-.339.558-.61.415-1.365.623-2.262.623-.845 0-1.508-.208-1.989-.635-.48-.43-.714-.935-.714-1.545 0-.675.246-1.207.728-1.597.493-.402 1.091-.597 1.806-.597.676 0 1.34.13 1.99.39l.103-.61c.144-.844-.311-1.311-1.248-1.311-.441 0-1.183.26-1.378.324-.508.117-.857-.156-.857-.532 0-.26.142-.468.428-.61.482-.26 1.131-.39 1.964-.39.792 0 1.416.234 1.871.701.456.454.611 1.104.47 1.947l-.573 3.284zM42.519 14.49c.065-.429.286-.636.664-.636.454 0 .714.35.65.83l-1.3 7.854c-.066.415-.3.622-.677.622-.455 0-.715-.35-.65-.83l1.313-7.84zM47.828 21.812h3.947c.431 0 .681.275.681.654 0 .367-.315.628-.695.628h-4.497c-.642 0-.945-.38-.84-1.02l1.259-7.567c.079-.445.302-.668.682-.668.459 0 .747.354.656.865l-1.193 7.108zM57.006 19.076c.131 0 .21-.065.236-.183.223-1.166-.38-1.676-1.338-1.676-1.062 0-1.639.602-1.861 1.859h2.963zm-3.135 1.06l-.038.235c-.158 1.035.498 1.572 1.613 1.572.484 0 .982-.118 1.481-.354a.845.845 0 0 1 .327-.092c.368 0 .604.262.604.615 0 .262-.157.472-.459.642-.577.315-1.233.472-1.979.472-.945 0-1.679-.263-2.216-.786-.538-.536-.761-1.244-.682-2.12.012-.17.105-.694.262-1.584.353-1.833 1.612-2.685 3.12-2.685 1.6 0 2.977.97 2.557 3.011l-.053.236c-.144.563-.459.837-.957.837h-3.58zM60.638 18.905c-.118.55-.184.996-.21 1.336-.118 1.034.42 1.662 1.455 1.662.486 0 .997-.157 1.522-.47l.615-3.732c-.431-.236-.957-.353-1.56-.353-.983 0-1.586.523-1.822 1.557zm3.88 3.875c-.327 2.095-1.441 2.92-3.212 2.92-.878 0-1.77-.354-2.229-.72-.236-.17-.354-.367-.354-.615 0-.315.25-.603.616-.603.132 0 .276.052.446.144.512.366 1.063.55 1.627.55.982 0 1.625-.603 1.796-1.755-.498.25-1.023.38-1.587.38-.813 0-1.456-.248-1.927-.759-.459-.51-.656-1.19-.59-2.042.039-.497.131-1.035.25-1.622.353-1.73 1.454-2.606 3.133-2.606 1.153 0 2.137.406 2.648.785.223.17.302.367.262.602l-.879 5.341zM70.577 19.076c.131 0 .21-.065.236-.183.222-1.166-.38-1.676-1.337-1.676-1.062 0-1.64.602-1.862 1.859h2.963zm-3.134 1.06l-.04.235c-.157 1.035.499 1.572 1.613 1.572.485 0 .984-.118 1.482-.354a.848.848 0 0 1 .328-.092c.367 0 .603.262.603.615 0 .262-.157.472-.459.642-.577.315-1.232.472-1.98.472-.944 0-1.677-.263-2.216-.786-.537-.536-.76-1.244-.681-2.12.013-.17.104-.694.262-1.584.353-1.833 1.612-2.685 3.12-2.685 1.6 0 2.977.97 2.558 3.011l-.053.236c-.144.563-.46.837-.957.837h-3.58zM78.313 22.505c-.065.433-.288.641-.682.641-.433 0-.709-.34-.643-.824l.564-3.339c.223-1.295-.63-1.596-1.35-1.596-.564 0-1.088.145-1.574.432l-.774 4.7c-.065.419-.3.627-.68.627-.46 0-.722-.353-.657-.837l.84-5c.039-.25.17-.432.393-.576.773-.459 1.626-.682 2.557-.682.865 0 1.56.236 2.071.72.511.485.696 1.205.538 2.161l-.603 3.573zM81.473 21.51c.276.276.681.42 1.193.42a2.46 2.46 0 0 0 1.429-.445l.603-3.666c-.314-.222-.956-.471-1.587-.471-.93 0-1.52.524-1.756 1.557-.079.328-.144.773-.21 1.336-.066.563.052.982.328 1.27m1.534-5.46c.72 0 1.35.158 1.915.459l.353-2.107c.066-.432.289-.643.669-.643.459 0 .722.354.656.839l-1.233 7.409c-.052.275-.13.38-.394.537a4.108 4.108 0 0 1-2.307.68c-.878 0-1.6-.262-2.15-.798-.55-.537-.787-1.283-.696-2.252.04-.354.118-.851.25-1.518.354-1.69 1.482-2.606 2.937-2.606"/></g><g transform="translate(16.484 .547)"><mask id="d" fill="#fff"><use xlink:href="#c"/></mask><path fill="#E20613" mask="url(#d)" d="M3.916.227l23.731-.27v12.582L.087 15.762z"/></g><g transform="translate(0 8.775)"><mask id="f" fill="#fff"><use xlink:href="#e"/></mask><path fill="#81CFF4" mask="url(#f)" d="M-10.397 8.85L-10.99.488l27.56 7.047z"/></g><g transform="translate(0 .547)"><mask id="h" fill="#fff"><use xlink:href="#g"/></mask><path fill="#F6A500" mask="url(#h)" d="M15.12-2.482l2.1 18.919-19.346-20.09"/></g><g transform="translate(0 .547)"><mask id="j" fill="#fff"><use xlink:href="#i"/></mask><path fill="#EB6608" mask="url(#j)" d="M-10.99 8.715L-.424-2.892l16.996 18.654z"/></g><g transform="translate(13.737 .547)"><mask id="l" fill="#fff"><use xlink:href="#k"/></mask><path fill="#FFDC00" mask="url(#l)" d="M.62-5.118L7.603-.043 2.834 15.762z"/></g><g transform="translate(3.663 16.09)"><mask id="n" fill="#fff"><use xlink:href="#m"/></mask><path fill="#2580C3" mask="url(#n)" d="M-12.3 12.709L12.907.219 1.838 17.584"/></g><g transform="translate(3.663 16.09)"><mask id="p" fill="#fff"><use xlink:href="#o"/></mask><path fill="#1DB4E9" mask="url(#p)" d="M12.908.22L-12.3 12.709l-.94-11.47z"/></g><g transform="translate(5.495 16.09)"><mask id="r" fill="#fff"><use xlink:href="#q"/></mask><path fill="#D2D700" mask="url(#r)" d="M15.492 18.286L.357 16.646 11.077.22z"/></g><g transform="translate(10.99 17.918)"><mask id="t" fill="#fff"><use xlink:href="#s"/></mask><path fill="#93C01F" mask="url(#t)" d="M24.21 14.197H.086L5.58-1.609z"/></g><g transform="translate(16.484 24.318)"><mask id="v" fill="#fff"><use xlink:href="#u"/></mask><path fill="#00A65D" mask="url(#v)" d="M27.647 7.797h-8.932L.087-8.009l27.56 3.44z"/></g></g></svg>